<?xml version="1.0" encoding="utf-8"?>
<!-- Generator: Adobe Illustrator 18.1.1, SVG Export Plug-In . SVG Version: 6.00 Build 0)  -->
<svg version="1.1" id="Ebene_1" xmlns="http://www.w3.org/2000/svg" xmlns:xlink="http://www.w3.org/1999/xlink" x="0px" y="0px"
	 viewBox="0 0.2 231.3 260" enable-background="new 0 0.2 231.3 260" xml:space="preserve">
<path d="M132.7,201.4c1.4-2.4,2.9-4.7,4.3-7.1c-2.2-1.9-4.7-3.9-6.9-5.7c-5.4,5.8-10.5,13.4-12.9,20.5
	C122.7,210.5,126.9,208.8,132.7,201.4z"/>
<path d="M105.6,208.2c6.9,6.5,11.3,7.5,16.5,5.4c-3.3-6.7-9.6-13.6-15.8-18.4c-1.8,2.2-4.2,4.5-5.9,6.7
	C102,203.9,103.8,206.1,105.6,208.2z"/>
<path fill="#567483" d="M154.1,175c0-0.2,0-0.4,0-0.8c-25.6,6.5-51.3,6-76.9,0v6.7l-18.5,13.8l4,8l40,3.7c0,0,1.9-1.9,2.3-4.4
	c0.2-2.7-1.4-4.4-1.4-4.4l-25.6-2.4l13.8-6.8c20.1,6.5,39.8,2.4,52.6-1.7l14.2,7l-27-1.8c0,0-1.9,1.5-2,4.2
	c-0.2,2.5,1.5,4.7,1.5,4.7l45.9,1.9l4-8L154.1,175z"/>
<path fill="#EBF5F2" d="M154.1,100.6H77.2V175c25.6,6,51.3,6.5,76.9,0C154.1,166,154.1,112.6,154.1,100.6z"/>
<polygon fill="#7EB5D0" points="118.4,142.3 122.8,134.7 111.2,134.7 116.6,144.1 114.7,169.5 123.7,177.3 129.6,169.5 "/>
<polygon fill="#EFCAA6" points="18.4,153.3 30.3,153.2 30.5,145.4 24,146.1 "/>
<path fill="#EBF5F2" d="M54.5,143.7L54.5,143.7l-26.6,1.1c1.5,3.4,0.4,6.9-2.8,10.3c9.8-1.7,19.5-3.4,29.3-5.1l0,0l0,0L85,137.4
	l-7.9-6.3L54.5,143.7z"/>
<polygon fill="#EFCAA6" points="25.6,144.7 23.2,143.9 20.1,138.2 11,137.1 14.8,141.5 -0.1,137 9.7,153.1 28.3,154.1 "/>
<polygon fill="#FFDEBA" points="11.6,152.1 3.2,138 -0.1,137 9.7,153.1 28.3,154.1 "/>
<polygon fill="#EFCAA6" points="212.9,153.3 201,153.2 200.8,145.4 207.2,146.1 "/>
<path fill="#EBF5F2" d="M176.9,143.7L176.9,143.7l26.6,1.1c-1.5,3.4-0.4,6.9,2.8,10.3c-9.8-1.7-19.5-3.4-29.3-5.1l0,0l0,0
	l-30.8-12.7l7.9-6.3L176.9,143.7z"/>
<polygon fill="#FFFFF5" points="203.3,144.8 176.9,143.7 176.9,143.7 154.1,131 176.9,145.4 "/>
<polygon fill="#EFCAA6" points="215.2,141.8 217.3,137.7 208.7,140.9 208,143.9 205.6,144.7 202.9,154.1 221.6,153.1 231.3,137 "/>
<polygon fill="#FFDEBA" points="219.7,152.1 228.1,138 231.3,137 221.6,153.1 202.9,154.1 "/>
<path fill="#FFFFF5" d="M77.2,131l-22.8,12.7v0.1l-26.5,1l26.9,0.6l22.4-12.2V175c4,1,8.1,1.7,12,2.4v-43.7
	C85.2,133.1,81.3,132.2,77.2,131z"/>
<g opacity="0.5">
	<image overflow="visible" width="205" height="95" xlink:href="EDF9E473C2530C29.png"  transform="matrix(1 0 0 1 18 195)">
	</image>
</g>
<g>
	<polygon points="142.7,24 149.3,24 160.1,33.2 158.7,50.4 	"/>
	<path fill="#EFCAA6" d="M163.5,57.8c-0.9-1.8-2.3-2.8-3.9-2.8C156,32.8,143.9,16,113.3,16c-31.9,0-43,18-44.6,43.1l0,0
		c-2.7-2.4-5.9-1.7-7.3,1.4c-1.4,3.1-0.4,7.6,2.2,10c1.6,1.5,3.4,1.7,5.1,1.1c0.6,18.4,4.7,39.3,8.8,59.4c26.5,7.2,52,6,76.9,0
		c2.8-18.1,7.4-41.7,6.8-62.9c0.1-0.1,0.3-0.2,0.4-0.4C164,65.4,164.9,60.9,163.5,57.8z"/>
	<path fill="#FFDEBA" d="M101,27.9c-6,0.4-11.9,1.6-17.2,4.1L68.6,59.2l0,0l0,0c-2.7-2.4-5.9-1.7-7.3,1.4c-1.4,3.1-0.4,7.6,2.2,10
		c1.6,1.5,3.4,1.7,5.1,1.1c0.6,18.4,4.7,39.3,8.8,59.4c4.1,1.1,8.1,2,12,2.7C81.5,90,77.9,47.8,101,27.9z"/>
	<path d="M70,66.3c-0.8-3.1-4.4-4.7-6.2-1.3c0-0.1,0.1-0.2,0.1-0.3c0.9-1.9,3-3,4.7-1.4c-1.8-2.5-5.3-3.3-7.1-0.2
		C64.8,56.5,70.6,62.6,70,66.3z"/>
	<path d="M147.5,13.9c1.9-3.4,2.8-8,1.9-13.9c-25.3,21.3-74-19.9-77.4,36.6L67.2,42l1.4,17.2l15.3-27.2c28-13.1,70.9,11,83.8-20.7
		C162,13.9,155.2,14.3,147.5,13.9z"/>
	<path opacity="0.4" fill="#FFFFFF" enable-background="new    " d="M72.1,36.6L67.2,42l1.4,17.2l0.6-16.4l6-4.8
		C77,9.3,90,5.2,105.7,5.3C88.6,4.2,73.9,6.6,72.1,36.6z"/>
	<path fill="#F1F5F7" d="M103.2,105.8l1.2,2.8l-0.1-2.9c1.8-0.3,3.7-0.5,5.4-0.8c-4.6-0.4-8.8-1.4-12.3-2.9l0.6-4.3l-1.8,3.7
		c-6.5-3.3-9.4-9-4.7-17c22.4,6.3,42.8,7.6,59.6,0.6c-0.6,6.6-5.4,11.5-12,14.8l-2.8-4.3l1.4,5.1c-2.4,1.1-4.8,1.9-7.5,2.6l-1-2
		l0.2,2.2c-2.5,0.6-5.2,1.1-7.7,1.4c7.4,0.5,14.1,2.4,18.5,5.5c-15.9,8.9-40.2,9.4-53.5,1.6C91.4,109.1,97.2,107,103.2,105.8z"/>
	<path fill="#DDE1E3" d="M90.2,87.2c0.3-0.9,0.8-1.8,1.4-2.8c22.4,6.3,42.8,7.6,59.6,0.6C134.6,92.1,110.5,96.4,90.2,87.2z"/>
	<g>
		<path d="M83,81.9c-7.2,10.6-7,18.9-2.5,24.7c-6-6.2-7-15.3,1.1-27v-0.1c4.2,2.2,8.2,4,12.2,5.5C90.2,84.1,86.6,83,83,81.9L83,81.9
			z"/>
		<path d="M140.3,88.4c5.5-1.7,10.6-4.1,15.7-7.2c1.7,10.9-2.5,19-9.7,25c6.6-5.6,10.3-13.2,9-23C150.7,85.5,145.7,87.2,140.3,88.4z
			"/>
	</g>
	<path fill="#732706" d="M97.4,102l0.6-4.3l-1.8,3.7c-6.5-3.3-9.4-9-4.7-17l0,0c-2.8-0.8-5.7-1.7-8.6-2.6v0.1
		c-9.8,14.3-5.9,24.4,3.8,30l0,0c4.7-2.8,10.4-4.8,16.6-6l1.2,2.8l-0.1-2.9c1.8-0.3,3.7-0.5,5.4-0.8
		C105.1,104.6,100.8,103.6,97.4,102z M155.4,83c-1.4,0.8-2.9,1.4-4.3,2c-0.6,6.6-5.4,11.5-12,14.8l-2.8-4.3l1.4,5.1
		c-2.4,1.1-4.8,1.9-7.5,2.6l-1-2l0.2,2.2c-2.5,0.6-5.2,1.1-7.7,1.4c7.4,0.5,14.1,2.4,18.5,5.5l0,0C150.2,104.7,157,95.6,155.4,83z"
		/>
	<path d="M116.8,123.8c-5.8,0-11.3-1.2-15.7-3.3c4,3.4,10.2,5.7,17.3,5.7c9.7,0,17.9-4.2,20.8-10.1
		C134.1,120.8,125.9,123.8,116.8,123.8z"/>
	<path d="M143.4,61c-7.3-1.8-14.2,1.7-17.4,8.4c4.6-4.7,11.3-6.9,18.2-5.2c4.4,1.2,8.3,3.7,11.3,7.1C153,66.3,148.7,62.3,143.4,61z"
		/>
	<path d="M94.7,62.2c-5.3,1-10.1,3.5-14.1,7c3.4-5.1,9-9,15.4-10.2c8.7-1.7,16.4,2.3,19.1,9.3C110.4,62.9,103,60.6,94.7,62.2z"/>
	<path d="M129.6,79c-0.8,2.6-3.1,4.5-5.9,4.5c-1.1,0-2.2-0.3-3.1-0.9c0.4,0,0.8,0.1,1.2,0.1C124.8,82.7,127.7,81.2,129.6,79z"/>
	<path fill="#FFDEBA" d="M129.6,79c0,0-2.2,1.9-4.5,2.8c-2.5,0.9-4.5,0.9-4.5,0.9c0.4,0,0.8,0.1,1.2,0.1
		C124.8,82.7,127.7,81.2,129.6,79z"/>
	<path d="M145.3,44.4c3.1,2.3,5.2,5.4,6.3,8.8c-0.1-4.3-2-8.6-5.7-11.3c-5.1-3.8-11.9-3.5-17,0.1C134.3,40.2,140.4,40.9,145.3,44.4z
		"/>
	<path d="M92.4,43.8c-3.9,2.2-6.9,5.2-8.8,8.6c1-4.5,4.1-8.7,8.7-11.3c6.5-3.5,13.9-2.8,18.6,1.3C105.4,40.2,98.5,40.4,92.4,43.8z"
		/>
	<path fill="#FFDEBA" d="M139,116.1c-4.9,4.7-15.9,6.1-21.6,6.5c-4,0.2-11.9,0-16.4-2c4.4,2.2,9.9,3.3,15.7,3.3
		C125.9,123.8,134.1,120.8,139,116.1z"/>
</g>
</svg>
