<?xml version="1.0" encoding="utf-8"?>
<!-- Generator: Adobe Illustrator 18.1.1, SVG Export Plug-In . SVG Version: 6.00 Build 0)  -->
<svg version="1.1" id="Ebene_1" xmlns="http://www.w3.org/2000/svg" xmlns:xlink="http://www.w3.org/1999/xlink" x="0px" y="0px"
	 viewBox="0 0 120.7 154" enable-background="new 0 0 120.7 154" xml:space="preserve">
<g>
	<path fill-rule="evenodd" clip-rule="evenodd" d="M83.7,145.6c-1.7-0.6-3.3-1.1-5-1.7c-0.9,1.6-1.7,3.5-2.5,5
		c4.3,2.5,9.8,4.6,14.4,5C90.8,150.5,89.1,148.1,83.7,145.6z"/>
	<path fill-rule="evenodd" clip-rule="evenodd" d="M35.1,145.6c-5.4,2.6-7,4.9-6.9,8.4c4.7-0.5,10.1-2.5,14.4-5
		c-0.9-1.6-1.7-3.5-2.5-5C38.4,144.5,36.7,145,35.1,145.6z"/>
</g>
<path fill-rule="evenodd" clip-rule="evenodd" fill="#193540" d="M35.4,110.4V145c0,0,1.3,1.1,2.9,1.1c1.7,0,2.7-1.1,2.7-1.1v-27.4
	c13.9,5.8,24.4,5.8,36.8,0.1V145c0,0,1.2,0.9,3.4,0.9c1.9,0,2.7-0.9,2.7-0.9s0-24.4,0-34.6C83.9,110.2,35.4,110.4,35.4,110.4z"/>
<path fill-rule="evenodd" clip-rule="evenodd" fill="#EBF5F2" d="M35.4,63.4v22.2v24.7c16.2,3.8,32.3,4.1,48.5,0c0-6.1,0-25,0-25
	c0-7.3,0-14.6,0-21.9H35.4z"/>
<polygon fill-rule="evenodd" clip-rule="evenodd" fill="#754D33" points="76.7,15.1 80.9,15.1 87.7,20.9 86.8,31.8 "/>
<polygon fill-rule="evenodd" clip-rule="evenodd" fill="#A0220A" points="61.3,89.8 64.1,84.9 56.8,84.9 60.2,90.9 59,106.9 
	64.7,111.8 68.4,106.9 "/>
<linearGradient id="SVGID_1_" gradientUnits="userSpaceOnUse" x1="57.5533" y1="85.8041" x2="57.5533" y2="10.0878">
	<stop  offset="0" style="stop-color:#EFCAA6"/>
	<stop  offset="0.5" style="stop-color:#DFA898"/>
	<stop  offset="1" style="stop-color:#D79581"/>
</linearGradient>
<path fill-rule="evenodd" clip-rule="evenodd" fill="url(#SVGID_1_)" d="M89.8,36.4c-0.5-1.2-1.5-1.8-2.5-1.8
	c-2.3-14-10-24.5-29.2-24.5C38,10.1,31,21.4,29.9,37.3c0,0,0,0,0,0c-1.7-1.5-3.7-1.1-4.6,0.9c-0.9,2-0.3,4.8,1.4,6.3
	c1,0.9,2.2,1.1,3.2,0.7c0.4,11.6,3,24.8,5.5,37.5c16.7,4.6,32.8,3.8,48.5,0c1.8-11.4,4.7-26.3,4.2-39.7c0.1-0.1,0.2-0.2,0.3-0.2
	C90.1,41.2,90.7,38.4,89.8,36.4z"/>
<path fill-rule="evenodd" clip-rule="evenodd" fill="#F1F5F7" d="M53,32.5c5.6,0,9.4,4.5,8.7,10.1c-0.8,5.6-5.9,10.1-11.5,10.1
	c-5.6,0-9.4-4.5-8.7-10.1C42.3,37,47.4,32.5,53,32.5z"/>
<path fill-rule="evenodd" clip-rule="evenodd" fill="#DDE1E3" d="M52,51c-5.6,0-9.4-4.5-8.7-10.1c0.3-2.3,1.4-4.3,2.8-6
	c-2.5,1.8-4.3,4.6-4.7,7.7c-0.8,5.6,3.1,10.1,8.7,10.1c3.3,0,6.5-1.6,8.7-4.1C56.8,50.1,54.4,51,52,51z"/>
<path fill-rule="evenodd" clip-rule="evenodd" fill="#95A6B1" d="M53.8,49.5c-1.6,0-2.8-1.3-2.5-3c0.2-1.6,1.7-3,3.4-3
	c1.3,0,2.3,0.8,2.5,2c0,0,0,0,0,0c0.4-2.5-1.4-4.5-3.9-4.5c-2.5,0-4.8,2-5.2,4.5c-0.4,2.5,1.4,4.5,3.9,4.5c0.9,0,1.7-0.2,2.5-0.7
	C54.3,49.5,54.1,49.5,53.8,49.5z"/>
<path fill-rule="evenodd" clip-rule="evenodd" fill="#F1F5F7" d="M73.5,37.2c-3.8,0-6.4,3.1-5.9,6.9c0.5,3.8,4,6.9,7.8,6.9
	c3.8,0,6.4-3.1,5.9-6.9C80.8,40.3,77.3,37.2,73.5,37.2z"/>
<path fill-rule="evenodd" clip-rule="evenodd" fill="#DDE1E3" d="M81.3,44.1c-0.4-2.6-2.1-4.8-4.4-6c1.7,1.3,2.9,3.1,3.2,5.2
	c0.5,3.8-2.1,6.9-5.9,6.9c-1.2,0-2.4-0.3-3.5-0.9c1.3,1,3,1.6,4.7,1.6C79.2,51,81.9,47.9,81.3,44.1z"/>
<path fill-rule="evenodd" clip-rule="evenodd" fill="#95A6B1" d="M73.8,48.7c-0.7,0-1.4-0.6-1.5-1.3c-0.1-0.7,0.4-1.3,1.1-1.3
	c0.7,0,1.4,0.6,1.5,1.3c0,0.1,0,0.1,0,0.2c0-0.2,0.1-0.4,0-0.7c-0.2-1.1-1.2-2-2.3-2c-1.1,0-1.9,0.9-1.8,2c0.2,1.1,1.2,2,2.3,2
	c0.4,0,0.7-0.1,1-0.3C74.1,48.7,73.9,48.7,73.8,48.7z"/>
<polygon fill-rule="evenodd" clip-rule="evenodd" fill="#754D33" points="46.9,26.2 55.6,23.6 55.1,26.4 44.2,31.7 "/>
<polygon fill-rule="evenodd" clip-rule="evenodd" fill="#754D33" points="74.5,26.4 66,23.2 66.3,26.1 76.8,32 "/>
<path fill-rule="evenodd" clip-rule="evenodd" fill="#C5997C" d="M68.3,49.8c-0.5,1.6-2,2.9-3.8,2.9c-0.7,0-1.4-0.2-1.9-0.5
	c0.3,0,0.5,0,0.8,0C65.3,52.2,67.1,51.3,68.3,49.8z"/>
<path fill-rule="evenodd" clip-rule="evenodd" fill="#FFDEBA" d="M68.3,49.8c0,0-1.3,1.2-2.9,1.8c-1.5,0.6-2.8,0.6-2.8,0.6
	c0.3,0,0.5,0,0.8,0C65.3,52.2,67.1,51.3,68.3,49.8z"/>
<g>
	<path fill-rule="evenodd" clip-rule="evenodd" fill="#C5997C" d="M81.9,44.9c-0.2-1.3-0.7-2.5-1.5-3.6c0.5,0.9,0.9,1.8,1,2.8
		c0.5,3.8-2.1,6.9-5.9,6.9c-2.5,0-4.8-1.3-6.3-3.3c1.4,2.4,4.1,4.1,6.8,4.1C79.7,51.7,82.4,48.7,81.9,44.9z"/>
	<path fill-rule="evenodd" clip-rule="evenodd" fill="#C5997C" d="M61.6,42.6c-0.8,5.6-5.9,10.1-11.5,10.1c-5.6,0-9.4-4.5-8.7-10.1
		c0.4-3.1,2.3-5.9,4.8-7.8c-2.9,1.9-5,5-5.5,8.5C39.9,49.2,43.9,54,49.8,54c5.8,0,11.3-4.7,12.1-10.6c0.3-2,0-3.9-0.8-5.5
		C61.7,39.3,61.9,40.9,61.6,42.6z"/>
</g>
<path fill-rule="evenodd" clip-rule="evenodd" fill="#C5997C" d="M54.6,75.1c0.4,2.6,0.9,5.6,3,7.6c1.5,1.4,3.3,0.6,4.5-0.7
	c0.2-0.2,0.3-0.3,0.5-0.5c0-0.1-0.1-0.1-0.1-0.2c-0.4-0.9-1.2-3.8,0.5-4.2c2.4-0.5,1,3.6,0.4,4.5c0.2,0.5,0.6,0.9,1,1.3
	c1.7,1.3,3.4-1.2,4.1-2.3c1.1-1.8,1.6-3.5,1.8-5.6c0.6,2.3-1.6,9.5-5.4,8.8c-0.5-0.1-1-0.4-1.3-0.7c-0.3-0.2-0.5-0.5-0.7-0.9
	c-0.1,0.1-0.2,0.2-0.3,0.3c-0.8,0.7-1.7,1.4-2.9,1.6c-2.4,0.3-3.9-2.2-4.5-3.9C54.8,78.4,54.4,76.9,54.6,75.1L54.6,75.1z M63.1,80.8
	c0.3-0.6,0.6-1.3,0.5-2c-0.2-1.2-0.7-0.9-0.8,0.1C62.8,79.5,62.9,80.1,63.1,80.8z"/>
<path fill-rule="evenodd" clip-rule="evenodd" fill="#754D33" d="M79.8,8.8C81,6.6,81.5,3.8,81,0C65,13.5,34.3-12.5,32.2,23.1
	l-3.1,3.4l0.9,10.9l9.6-17.1c17.6-8.3,44.7,6.9,52.8-13C88.9,8.7,84.5,9,79.8,8.8z"/>
<path fill-rule="evenodd" clip-rule="evenodd" fill="#FFFFFF" d="M48.1,46.4c0.3,0,0.5,0.2,0.5,0.5s-0.2,0.5-0.5,0.5
	c-0.3,0-0.5-0.2-0.5-0.5S47.9,46.4,48.1,46.4L48.1,46.4z M46.8,47.9c0.5,0,0.9,0.4,0.9,0.9c0,0.5-0.4,0.9-0.9,0.9
	c-0.5,0-0.9-0.4-0.9-0.9C45.9,48.4,46.3,47.9,46.8,47.9z"/>
<path fill-rule="evenodd" clip-rule="evenodd" fill="#FFFFFF" d="M71.2,47.6c0.1,0,0.2,0.1,0.2,0.2c0,0.1-0.1,0.2-0.2,0.2
	c-0.1,0-0.2-0.1-0.2-0.2C71,47.7,71.1,47.6,71.2,47.6L71.2,47.6z M70.6,48.3c0.2,0,0.4,0.2,0.4,0.4c0,0.2-0.2,0.4-0.4,0.4
	c-0.2,0-0.4-0.2-0.4-0.4C70.2,48.4,70.4,48.3,70.6,48.3z"/>
<path fill-rule="evenodd" clip-rule="evenodd" fill="#FFDEBA" d="M50.4,17.6c-3.8,0.3-7.5,1-10.8,2.6l-9.6,17.1c0,0,0,0,0,0l0,0
	c-1.7-1.5-3.7-1.1-4.6,0.9c-0.9,2-0.3,4.8,1.4,6.3c1,0.9,2.2,1.1,3.2,0.7c0.4,11.6,3,24.8,5.5,37.5c2.5,0.7,5.1,1.3,7.6,1.7
	C38,56.8,35.8,30.1,50.4,17.6z"/>
<path fill-rule="evenodd" clip-rule="evenodd" fill="#D0A486" d="M30.8,41.8c-0.5-2-2.8-3-4-0.8c0-0.1,0.1-0.2,0.1-0.2
	c0.5-1.3,1.9-1.9,3-0.9c-1.1-1.5-3.4-2.1-4.5-0.2C27.6,35.6,31.2,39.5,30.8,41.8z"/>
<polygon fill-rule="evenodd" clip-rule="evenodd" fill="#EBF5F2" points="95,97.3 91.6,119.1 98.4,120.3 99.1,97 83.9,82.7 80.2,88 
	"/>
<polygon fill-rule="evenodd" clip-rule="evenodd" fill="#D7E1DE" points="95,97.3 93.5,107.4 95.9,97.1 84.6,90.8 "/>
<polygon fill-rule="evenodd" clip-rule="evenodd" fill="#FFFFF5" points="83.9,82.7 98.1,97.2 97.6,120.1 98.4,120.3 99.1,97 "/>
<polygon fill-rule="evenodd" clip-rule="evenodd" fill="#EBF5F2" points="24.2,97.3 27.6,119.1 20.8,120.3 20.1,97 35.4,82.7 39,88 
	"/>
<polygon fill-rule="evenodd" clip-rule="evenodd" fill="#D7E1DE" points="30.9,93.2 23.2,97.1 26.3,110.7 24.2,97.3 "/>
<g>
	<polygon fill-rule="evenodd" clip-rule="evenodd" fill="#EFCAA6" points="100,114 91,113.6 87,119.5 104.6,122 	"/>
	<polygon fill-rule="evenodd" clip-rule="evenodd" fill="#FFDEBA" points="98.8,114.8 93.9,113.8 100,114 104.6,122 102.7,121.7 	
		"/>
	<polygon fill-rule="evenodd" clip-rule="evenodd" fill="#EFCAA6" points="92.1,114 88.8,113.9 86,116.2 90.7,117.1 	"/>
</g>
<path fill="#D0A486" d="M43.6,71c0-1.5,1.4-3.4,3.6-5.2c-2.7,2.1-4.4,4.2-4.4,5.8c0,1.9,2.1,2.2,5.3,2C45.4,73.5,43.6,72.8,43.6,71z
	"/>
<path fill="#D0A486" d="M76.2,61.9c3.1,2.7,4.4,6.5,4.4,9.1c0,1.9-1,2.6-3,2.7c2.6,0.1,4-0.3,4-2.4C81.6,68.6,80,64.5,76.2,61.9z"/>
<path fill="#F1F5F7" d="M73.7,60.1c-1.9-1.1-4.4-1.7-7.3-1.7c-5,0-10.5,1.9-14.9,4.4c2.4,0.7,5.1,1,8,0.9l-0.1-1.5l0.4,1.5
	C64.4,63.5,69.2,62.2,73.7,60.1z"/>
<path fill="#DDE1E3" d="M66.4,58.4c-4,0-8.4,1.2-12.2,3C58,60,62,59.1,65.8,59.1c2.8,0,5.2,0.5,7.2,1.4c0.2-0.1,0.4-0.2,0.7-0.3
	C71.7,59.1,69.3,58.4,66.4,58.4z"/>
<g opacity="0.6">
	<path fill-rule="evenodd" clip-rule="evenodd" fill="#FFFFFF" d="M103.2,42.5L103.2,42.5L103.2,42.5c0-0.8-1-1.4-1.5-1.4
		c-0.9,0-3.1,1.5-3.1,1.5s2.3,1.4,3.2,1.4C102.3,44,103.2,43.3,103.2,42.5z"/>
	<path fill-rule="evenodd" clip-rule="evenodd" fill="#FFFFFF" d="M104.9,49.8c0,0,0,2.7,0.5,3.4c0.3,0.4,1.3,0.9,2,0.4
		c0.7-0.4,0.7-1.6,0.4-2C107.4,50.9,104.9,49.8,104.9,49.8z"/>
	<path fill-rule="evenodd" clip-rule="evenodd" fill="#FFFFFF" d="M112.1,44.4c0.2-0.8-0.5-1.7-0.9-1.8c-0.8-0.3-3.5,0.4-3.5,0.4
		s1.7,2.1,2.6,2.3C110.8,45.5,111.9,45.2,112.1,44.4z"/>
	<path fill-rule="evenodd" clip-rule="evenodd" fill="#FFFFFF" d="M14.9,64.2c-0.2,0.5,0,1.6,0.8,1.9l0,0l0,0
		c0.7,0.3,1.7-0.3,1.9-0.8c0.3-0.8-0.1-3.5-0.1-3.5S15.2,63.4,14.9,64.2z"/>
	<path fill-rule="evenodd" clip-rule="evenodd" fill="#FFFFFF" d="M0.2,56.6c-0.3,0.4-0.2,1.6,0.4,2c0.7,0.4,1.7,0,2-0.4
		c0.5-0.7,0.5-3.4,0.5-3.4S0.6,55.8,0.2,56.6z"/>
	<path fill-rule="evenodd" clip-rule="evenodd" fill="#FFFFFF" d="M4.6,41.5c-0.5,0.2-1.2,1.1-0.9,1.8c0.2,0.8,1.3,1.1,1.8,0.9
		c0.8-0.3,2.6-2.3,2.6-2.3S5.5,41.2,4.6,41.5z"/>
	<path fill-rule="evenodd" clip-rule="evenodd" fill="#FFFFFF" d="M16,32.5c-0.5-0.1-1.6,0.3-1.8,1l0,0l0,0c-0.2,0.8,0.5,1.6,1,1.8
		c0.8,0.2,3.4-0.6,3.4-0.6S16.8,32.8,16,32.5z"/>
	<path fill-rule="evenodd" clip-rule="evenodd" fill="#FFFFFF" d="M4.2,72.5c-0.2,0.5,0,1.6,0.7,1.9c0.7,0.3,1.7-0.3,1.9-0.7
		c0.4-0.8,0-3.5,0-3.5S4.6,71.7,4.2,72.5z"/>
	<path fill-rule="evenodd" clip-rule="evenodd" fill="#FFFFFF" d="M8.1,50.7c-0.5,0.2-1.2,1.1-0.9,1.8c0.2,0.8,1.3,1.1,1.8,0.9
		c0.8-0.3,2.6-2.3,2.6-2.3S8.9,50.5,8.1,50.7z"/>
	<path fill-rule="evenodd" clip-rule="evenodd" fill="#FFFFFF" d="M102.6,62.8c0,0-0.5,2.7-0.1,3.5c0.2,0.5,1.2,1.1,1.9,0.8h0
		c0.7-0.3,1-1.4,0.8-1.9C104.8,64.4,102.6,62.8,102.6,62.8z"/>
	<polygon fill-rule="evenodd" clip-rule="evenodd" fill="#FFFFFF" points="104.4,67.1 104.4,67.1 104.4,67.1 	"/>
	<path fill-rule="evenodd" clip-rule="evenodd" fill="#FFFFFF" d="M119.1,64.7c-0.5-0.7-2.9-1.9-2.9-1.9s0,2.7,0.5,3.4
		c0.3,0.4,1.3,0.9,2,0.4C119.4,66.3,119.4,65.2,119.1,64.7z"/>
	<path fill-rule="evenodd" clip-rule="evenodd" fill="#FFFFFF" d="M114.7,49.6c-0.8-0.3-3.5,0.4-3.5,0.4s1.7,2.1,2.6,2.3
		c0.5,0.2,1.6-0.2,1.8-0.9C115.9,50.7,115.2,49.8,114.7,49.6z"/>
</g>
<g opacity="0.6">
	<path fill-rule="evenodd" clip-rule="evenodd" fill="#FFFFFF" d="M83.1,32c0.8-0.2,1.2-1.3,1.1-1.8c-0.2-0.8-2.2-2.7-2.2-2.7
		s-0.9,2.6-0.7,3.4C81.4,31.4,82.3,32.2,83.1,32z"/>
	<path fill-rule="evenodd" clip-rule="evenodd" fill="#FFFFFF" d="M37.9,56.8c-0.2,0.5,0,1.6,0.8,1.9c0.7,0.3,1.7-0.3,1.9-0.8
		c0.3-0.8-0.1-3.5-0.1-3.5S38.3,56,37.9,56.8z"/>
	<path fill-rule="evenodd" clip-rule="evenodd" fill="#FFFFFF" d="M84.4,58.6c-0.1-0.9-1.9-2.9-1.9-2.9s-1.1,2.5-0.9,3.3
		c0.1,0.5,0.9,1.3,1.7,1.2C84,60.1,84.5,59.1,84.4,58.6z"/>
	<path fill-rule="evenodd" clip-rule="evenodd" fill="#FFFFFF" d="M63.9,35.9c0,0.5,0.6,1.5,1.4,1.5c0.8,0,1.5-0.9,1.5-1.4
		c0-0.9-1.4-3.2-1.4-3.2S63.9,35.1,63.9,35.9z"/>
	<path fill-rule="evenodd" clip-rule="evenodd" fill="#FFFFFF" d="M39.1,28.6c-0.2,0.5,0.2,1.6,0.9,1.8c0.8,0.2,1.7-0.5,1.8-0.9
		c0.3-0.8-0.4-3.5-0.4-3.5S39.3,27.7,39.1,28.6z"/>
</g>
<path fill-rule="evenodd" clip-rule="evenodd" fill="#FFFFF5" d="M35.4,82.7L20.1,97l0.7,23.3L21,97l14.4-12.8v26.2
	c1.9,0.4,3.8,0.8,5.7,1.2L43,84.4C40.5,83.9,37.9,83.4,35.4,82.7z"/>
<g>
	<polygon fill-rule="evenodd" clip-rule="evenodd" fill="#EFCAA6" points="19,113.5 27.9,114.2 31.2,120.5 13.5,120.9 	"/>
	<polygon fill-rule="evenodd" clip-rule="evenodd" fill="#FFDEBA" points="20.1,114.5 25,114 19,113.5 13.5,120.9 15.3,120.9 	"/>
	<polygon fill-rule="evenodd" clip-rule="evenodd" fill="#EFCAA6" points="26.8,114.5 30.1,114.7 32.7,117.3 27.8,117.7 	"/>
</g>
<path fill="#732706" d="M51.5,62.9C51.5,62.9,51.5,62.9,51.5,62.9C51.5,62.8,51.5,62.8,51.5,62.9C51.5,62.8,51.5,62.8,51.5,62.9z
	 M73.7,60.1c-4.5,2.1-9.3,3.3-13.8,3.6l-0.4-1.5l0.1,1.5c-2.9,0.1-5.6-0.2-8-0.9c-4.6,2.6-7.9,5.8-7.9,8.1c0,4.5,10.9,2,21.1,2
	c10.2,0,15.8,2.5,15.8-2C80.5,67.8,78.5,62.8,73.7,60.1z"/>
<path fill="#550900" d="M71.8,61c-3.9,1.6-8.1,2.5-12,2.7l-0.4-1.5l0.1,1.5c-2,0.1-3.9,0-5.7-0.3c-1.1,1.7-1.7,3.5-1.7,5.3
	c0,1.7,0.3,3.4,0.9,4.8c3.5-0.2,7.7-0.6,11.7-0.6c2.6,0,4.9,0.2,6.9,0.3c0.5-1.4,0.8-2.9,0.8-4.6C72.4,66.1,72.3,63.3,71.8,61z"/>
<path fill="#BE8077" d="M73.8,70c-1.2-0.6-2.4-1.1-3.7-1.6c1.9,1.5,3.4,3.1,4.3,4.8c-2.2-2.3-5.2-4.7-8.6-5.9
	c-4.5-1.6-11.8,2.7-12.8,4.2c-1.6,2.5,6.3,3.4,12.6,6.7c6.3,3.3,11.9,3.1,13.4,0.6C80.7,76.3,80.1,73.3,73.8,70z"/>
</svg>
