<?xml version="1.0" encoding="utf-8"?>
<!-- Generator: Adobe Illustrator 18.1.1, SVG Export Plug-In . SVG Version: 6.00 Build 0)  -->
<svg version="1.1" id="Ebene_1" xmlns="http://www.w3.org/2000/svg" xmlns:xlink="http://www.w3.org/1999/xlink" x="0px" y="0px"
	 viewBox="0 0 193.8 150" enable-background="new 0 0 193.8 150" xml:space="preserve">
<g>
	<path fill-rule="evenodd" clip-rule="evenodd" fill="#E1F0E8" d="M23.9,125.6c-9.4,1.4-18.2-5-19.6-14.4
		c-0.8-5.4,0.9-10.5,4.3-14.3c-2.8,3.6-4.1,8.3-3.4,13.2c1.5,9.5,10.3,15.9,19.8,14.5c3.2-0.5,6.1-1.8,8.4-3.8
		C30.9,123.3,27.6,125,23.9,125.6z"/>
	<path fill-rule="evenodd" clip-rule="evenodd" fill="#C9E8FB" d="M0.3,85.4c-2.2-14.6,7.8-28.3,22.4-30.5c1.2-0.2,2.5-0.3,3.7-0.3
		c0.8-12.2,10-22.7,22.7-24.7c7.5-1.2,14.8,1,20.4,5.3c-0.3-13.2,9.3-24.9,22.7-27c14.6-2.2,28.3,7.8,30.5,22.4
		c0.1,0.8,0.2,1.5,0.2,2.3c4-4.2,9.3-7.2,15.5-8.2c14.6-2.2,28.3,7.8,30.5,22.4c0.4,2.3,0.4,4.7,0.2,6.9c1.1-0.4,2.3-0.7,3.5-0.9
		c10-1.5,19.4,5.3,20.9,15.4c1.5,10-5.3,19.4-15.4,20.9c-0.8,0.1-1.7,0.2-2.5,0.2c0.4,13.6-9.4,25.6-23.2,27.7
		c-5.3,0.8-10.4,0.1-15-1.9c0.7,13.6-9,25.7-22.7,27.8c-7.9,1.2-15.6-1.2-21.3-5.9c-2.2,1-4.6,1.8-7.2,2.2
		c-12,1.8-23.4-4.6-28.3-15.1c-2.1,0.9-4.3,1.6-6.6,1.9c-7.1,1.1-13.9-0.7-19.3-4.5c-2.3,1.9-5.1,3.2-8.3,3.7
		c-9.4,1.4-18.2-5-19.6-14.4c-0.7-4.3,0.3-8.5,2.6-11.9C3.5,95.5,1.1,90.8,0.3,85.4z"/>
	<path fill-rule="evenodd" clip-rule="evenodd" fill="#BFDEF1" d="M137.6,115.5C137.6,115.5,137.6,115.5,137.6,115.5
		c4.2,1.8,9,2.6,13.9,2C146.6,118.1,141.8,117.3,137.6,115.5L137.6,115.5z M87.1,138.8c2.2-0.3,4.2-0.9,6.2-1.7
		c-3.2-2.8-5.7-6.3-7.4-10.3c4.9,10.6,16.3,17.1,28.4,15.2c14.6-2.3,24.7-16,22.4-30.6c-0.2-1.4-0.6-2.8-1-4.2
		c0.7,1.7,1.2,3.6,1.5,5.5c0.1,0.7,0.2,1.3,0.2,2l0,0c4.3,1.6,9.2,2.2,14.1,1.5c15.3-2.3,25.7-16.6,23.4-31.9
		c-0.1-0.4-0.1-0.7-0.2-1.1c0.3,1,0.5,2,0.6,3c0.2,1.3,0.3,2.6,0.3,3.8c0-0.1,0-0.3,0-0.4c0.8,0,1.7-0.1,2.5-0.2
		c5.1-0.8,9.4-3.6,12.2-7.5c2.1-3.5,3.1-7.8,2.4-12.2c-0.5-3.1-1.7-5.9-3.4-8.2c-2.5,5.4-7.6,9.4-13.9,10.4
		c-0.8,0.1-1.7,0.2-2.5,0.2c0.4,13.6-9.4,25.6-23.2,27.7c-5.3,0.8-10.4,0.1-15-1.9c0.7,13.6-9,25.7-22.7,27.8
		c-7.9,1.2-15.6-1.2-21.3-5.9c-2.2,1-4.6,1.8-7.2,2.2c-6.2,1-12.3-0.3-17.4-3.2c-2.2,2.2-4.8,4-7.7,5.4
		C63.9,134.4,75.2,140.7,87.1,138.8z M190,60.1C190,60.1,190,60.1,190,60.1C190,60.1,190,60.1,190,60.1L190,60.1z M193.6,68.5
		C193.6,68.5,193.6,68.5,193.6,68.5C193.6,68.5,193.6,68.5,193.6,68.5L193.6,68.5z M4.3,111.2c1.4,9.4,10.2,15.8,19.6,14.4
		c3.2-0.5,6-1.8,8.3-3.7c0,0,0.1,0,0.1,0.1c-1.2-0.8-2.3-1.7-3.4-2.8c5.9,5,13.9,7.6,22.2,6.3c5.7-0.9,10.7-3.4,14.7-7.1
		c-4.4-2.7-8.1-6.7-10.3-11.5c-2.1,0.9-4.3,1.5-6.6,1.9c-7.1,1.1-13.9-0.7-19.3-4.5c-2.3,1.9-5.1,3.2-8.3,3.7
		c-6.2,1-12.1-1.5-15.9-6C4.2,104.8,3.8,107.9,4.3,111.2z M93.7,137.4L93.7,137.4c5.3,4.5,12.4,6.8,19.8,6.1
		C106.1,144.2,99,141.9,93.7,137.4z M58.2,124.4c-2.1,0.9-4.3,1.6-6.6,1.9C53.8,126,56.1,125.3,58.2,124.4
		c4.7,10.1,15.4,16.5,26.9,15.3C73.6,140.9,62.9,134.5,58.2,124.4L58.2,124.4z"/>
	<path fill-rule="evenodd" clip-rule="evenodd" fill="#ABCADD" d="M28.9,119.2c5.8,5.6,14.1,8.5,22.6,7.1c2.3-0.4,4.6-1,6.6-1.9
		c0,0,0,0,0,0c4.9,10.5,16.3,17,28.3,15.1c2.6-0.4,5-1.1,7.2-2.2c5.7,4.8,13.3,7.1,21.2,5.9c13.7-2.1,23.4-14.3,22.7-27.8l0,0
		c4.6,2,9.7,2.7,15,1.9c14.9-2.3,25.2-16.3,22.9-31.2c-0.2-1-0.4-2-0.6-3c0.1,0.4,0.1,0.7,0.2,1.1c2.3,15.3-8.1,29.5-23.4,31.9
		c-4.9,0.8-9.7,0.2-14.1-1.5l0,0c-0.1-0.7-0.1-1.3-0.2-2c-0.3-1.9-0.8-3.8-1.5-5.5c0.4,1.3,0.8,2.7,1,4.2
		c2.3,14.6-7.8,28.4-22.4,30.6c-12.1,1.9-23.5-4.7-28.4-15.2c1.6,4,4.2,7.6,7.4,10.3c-1.9,0.8-4,1.4-6.2,1.7
		c-11.9,1.8-23.2-4.4-28.4-14.7c8-3.7,13.6-11.2,15.1-19.8c-2.5,10.7-11.3,19.3-22.8,21.1C42.8,126.8,34.8,124.2,28.9,119.2z"/>
	<g opacity="0.4">
		<path fill-rule="evenodd" clip-rule="evenodd" fill="#FFFFFF" d="M172.9,52.2c10-1.4,19.3,5.5,20.8,15.5c0.4,2.8,0.2,5.5-0.6,8
			c0.5-2.2,0.6-4.5,0.3-6.8c-1.5-10.1-10.9-17.2-21-15.7c-5.1,0.7-9.4,3.5-12.3,7.4C162.8,56.2,167.3,53,172.9,52.2z"/>
	</g>
	<path fill-rule="evenodd" clip-rule="evenodd" fill="#FFFFFF" d="M2.9,93.5C2.9,93.5,2.9,93.5,2.9,93.5C2.9,93.4,2.9,93.4,2.9,93.5
		C2.9,93.4,2.9,93.4,2.9,93.5z"/>
	<path opacity="0.4" fill-rule="evenodd" clip-rule="evenodd" fill="#FFFFFF" d="M69.5,35.2c-0.1-5.3,1.4-10.3,4-14.6
		c4.1-5.7,10.4-9.8,17.8-10.9c14.8-2.3,28.6,7.9,30.9,22.7c0.3,2.2,0.4,4.3,0.2,6.4c0-0.3-0.1-0.7-0.2-1
		c-2.5-14.3-16.2-23.9-30.5-21.4c-10.7,1.9-18.7,10-21.1,19.9c-0.4-0.4-0.9-0.7-1.3-1.1C69.4,35.1,69.4,35.1,69.5,35.2z"/>
	<path opacity="0.4" fill-rule="evenodd" clip-rule="evenodd" fill="#FFFFFF" d="M137.7,31.5c-6.1,1.1-11.3,4.1-15.1,8.4
		c0-0.1,0-0.2,0-0.3c0.4-2.2,0.6-4.5,0.4-6.8c2.4-2.6,5.4-4.7,8.8-6.2c1.3-0.4,2.6-0.7,3.9-0.9c15.5-2.4,30.1,8.3,32.4,23.8
		c0.2,1.6,0.3,3.2,0.3,4.7c0,0,0,0,0,0c-0.1-0.5-0.1-0.9-0.2-1.4C165.7,38.6,152,29,137.7,31.5z"/>
	<path opacity="0.4" fill-rule="evenodd" clip-rule="evenodd" fill="#FFFFFF" d="M50.6,31.8c7.3-1.1,14.4,0.8,20,4.8
		c-0.5,2.2-0.7,4.4-0.6,6.7c-5.6-4.1-12.8-6-20.2-4.7C37.4,40.7,28.6,51.2,28,63.3c0,0-0.1,0-0.1,0c0-0.2-0.1-0.3-0.1-0.5
		C25.6,48,35.7,34.1,50.6,31.8z"/>
	<path opacity="0.4" fill-rule="evenodd" clip-rule="evenodd" fill="#FFFFFF" d="M25.8,56.4c0.2,0,0.4-0.1,0.6-0.1
		c0,1.4,0.1,2.7,0.3,4.1c0.2,1,0.4,1.9,0.6,2.9c-1,0.1-1.9,0.2-2.9,0.3c-12,2.1-20.6,12-21.7,23.6C0.7,72.5,10.9,58.7,25.8,56.4z"/>
	<path opacity="0.4" fill-rule="evenodd" clip-rule="evenodd" fill="#FFFFFF" d="M145.4,64.8c9-1.4,17.5,4.8,18.9,13.9
		c0.4,2.5,0.2,5-0.5,7.2c0.4-2,0.5-4.1,0.2-6.2c-1.4-9.1-10-15.4-19.1-14c-4.6,0.7-8.5,3.2-11,6.8C136.3,68.5,140.4,65.6,145.4,64.8
		z"/>
	<path opacity="0.4" fill-rule="evenodd" clip-rule="evenodd" fill="#FFFFFF" d="M104.2,53.7c11.3-1.7,21.9,6,23.7,17.4
		c0.5,3.1,0.2,6.2-0.6,9.1c0.5-2.5,0.7-5.1,0.2-7.7c-1.8-11.5-12.5-19.3-24-17.6c-5.8,0.9-10.7,4.1-13.8,8.5
		C92.8,58.4,98,54.7,104.2,53.7z"/>
</g>
<path fill-rule="evenodd" clip-rule="evenodd" d="M40.5,95.3c1.7-0.7,3.5-1.4,5.2-2.1c1,1.6,2.1,3.6,3.1,5.2
	c-4.4,3-10.1,5.6-15.1,6.4C33.3,101,34.9,98.4,40.5,95.3z"/>
<path fill-rule="evenodd" clip-rule="evenodd" d="M55.5,140.2c-5.4,3.4-6.9,6.1-6.3,9.8c4.9-1.1,10.5-3.9,14.7-7.2
	c-1.1-1.6-2.2-3.5-3.3-5C58.9,138.6,57.2,139.4,55.5,140.2z"/>
<path fill-rule="evenodd" clip-rule="evenodd" fill="#193540" d="M90.6,115.6l-21.2,7.1l-6.7,18.1c0,0-2.2,1.5-3.6,0.5
	c-1.5-1.1-1.8-2.4-1.8-2.4l8.1-20.5l13.5-5.8c-13.4-9.1-17.6-16.4-19.7-30.9l-14.9,0.4l3.4,13c0,0-0.7,1.2-3.2,1.6
	c-1.8,0.3-3.1-0.9-3.1-0.9l-1.7-18.4c0,0,18.3-3.2,22.2-5.8C62.1,71.5,90.6,115.6,90.6,115.6z"/>
<path fill-rule="evenodd" clip-rule="evenodd" fill="#EBF5F2" d="M111.7,101.1l-21,14.5c-13-12.4-22.8-26.9-28.7-43.9
	c5.5-3.6,6.8-4.2,13.4-8.5L111.7,101.1z"/>
<path fill-rule="evenodd" clip-rule="evenodd" fill="#FFFFF5" d="M104.8,96.5c0.3,0.2,0.5,0.4,0.8,0.6c0.2,0.1,0.4,0.3,0.5,0.4
	c0.3,0.2,0.6,0.4,1,0.7c0.1,0.1,0.3,0.2,0.4,0.3c0.3,0.2,0.7,0.4,1,0.6c0.1,0.1,0.2,0.1,0.3,0.2c0.4,0.3,0.8,0.5,1.2,0.8
	c0.1,0.1,0.2,0.1,0.3,0.2c0.4,0.3,0.9,0.5,1.3,0.8l-21,14.5c-0.4-0.4-0.7-0.7-1.1-1.1l15.1-18.1l0,0
	C104.7,96.4,104.7,96.5,104.8,96.5z"/>
<polygon fill-rule="evenodd" clip-rule="evenodd" fill="#A0220A" points="88.1,83.8 93.2,80.6 86.3,76.8 86.4,84.3 77,98.9 
	79.9,106.5 85.9,103.7 "/>
<polygon fill-rule="evenodd" clip-rule="evenodd" fill="#754D33" points="133.5,18.3 130.4,15 120.7,14 112.9,22.9 "/>
<path fill-rule="evenodd" clip-rule="evenodd" fill="#EFCAA6" d="M107,24c1.3-0.5,2.5-0.2,3.2,0.6c12.6-8.6,26.6-10.6,41,4.5
	c15.1,15.7,11.5,29.7-0.2,42.4c0,0,0,0,0,0c2.4,0.2,3.7,2.1,2.8,4.3c-0.9,2.2-3.6,3.8-6,3.6c-1.5-0.1-2.5-0.9-2.9-2
	c-9.4,8.3-21.6,16.2-33.4,23.7c-16.1-9.6-27.5-22.8-36.3-37.9c7.6-9.9,17.1-23.4,27.8-33c0-0.1,0-0.3,0-0.4
	C103.1,27.3,104.8,24.7,107,24z"/>
<polygon fill-rule="evenodd" clip-rule="evenodd" fill="#754D33" points="147.1,49.8 142.7,41.1 140.8,43.6 144.9,56 "/>
<polygon fill-rule="evenodd" clip-rule="evenodd" fill="#754D33" points="126.4,28.4 135.2,32.6 132.7,34.6 120.2,30.8 "/>
<path fill-rule="evenodd" clip-rule="evenodd" fill="#D0A486" d="M112.7,50.8c-1,1.6-0.8,3.7,0.6,5.1c0.5,0.6,1.2,0.9,1.9,1.1
	c-0.2-0.2-0.4-0.4-0.6-0.6C113,54.9,112.4,52.8,112.7,50.8z"/>
<path fill-rule="evenodd" clip-rule="evenodd" fill="#FFDEBA" d="M112.7,50.8c0,0,0,2,0.7,3.6c0.7,1.6,1.7,2.6,1.7,2.6
	c-0.2-0.2-0.4-0.4-0.6-0.6C113,54.9,112.4,52.8,112.7,50.8z"/>
<path fill-rule="evenodd" clip-rule="evenodd" fill="#C5997C" d="M103.3,79.8c-1.5,1.6-3.1,2.6-5.1,3.5c-2,0.9-5.5,1.8-7.2-0.6
	c-0.8-1.1-1-2.6-1.1-3.8c0-0.2,0-0.3,0-0.5c-0.4,0.1-0.9,0.1-1.3,0.1c-0.6,0-1.2-0.2-1.8-0.6c-3.8-2.7,0.7-10.6,3.2-12.1
	c-1.6,1.9-2.7,3.7-3.4,6.3c-0.4,1.5-1.1,5.1,1.4,5.5c0.7,0.1,1.3,0,2-0.2c0.2-1.3,2.6-5.9,4.3-3.4c1.1,1.8-2.1,3.5-3.2,4
	C91,78,91,78,90.9,78.1c0,0.3-0.1,0.6-0.1,0.9c0,2.1,0.7,4.5,3.2,4.6C97.6,83.7,100.6,81.6,103.3,79.8L103.3,79.8z M93,75.6
	c0.7-0.9,0.5-1.6-0.6-0.8c-0.7,0.5-1.1,1.3-1.3,2.1C91.8,76.7,92.5,76.2,93,75.6z"/>
<path fill-rule="evenodd" clip-rule="evenodd" fill="#754D33" d="M136.2,11.1c0.7-2.6,2.6-5.1,5.9-7.5c1.4,22.5,44.7,27.1,18.5,55.4
	l-0.3,4.9l-9.1,7.4l6.2-20.3c-6.7-20-38.9-29.7-29.3-51C129.3,3.9,132.4,7.6,136.2,11.1z"/>
<path fill-rule="evenodd" clip-rule="evenodd" fill="#FFDEBA" d="M151.2,40.6c2.6,3.2,4.8,6.6,6.1,10.4l-6.2,20.3c0,0,0,0,0,0l0,0
	c2.4,0.2,3.7,2.1,2.8,4.3c-0.9,2.2-3.6,3.8-6,3.6c-1.5-0.1-2.5-0.9-2.9-2c-9.4,8.3-21.6,16.2-33.4,23.7c-2.5-1.5-4.8-3-7-4.6
	C129.9,79.6,152.4,61.4,151.2,40.6z"/>
<path fill-rule="evenodd" clip-rule="evenodd" fill="#D0A486" d="M147,74c1.9-1.1,4.5-0.1,3.6,2.5c0-0.1,0.1-0.2,0.1-0.2
	c0.6-1.3,0-2.9-1.6-3c2-0.3,4.2,1,3.5,3.4C154.2,72,148.5,72,147,74z"/>
<path fill-rule="evenodd" clip-rule="evenodd" fill="#F1F5F7" d="M137.4,49.8c-4.1-4.4-10.6-4.1-14.4,0.7
	c-3.8,4.8-3.5,12.2,0.6,16.6c4.1,4.4,10.6,4.1,14.4-0.7C141.9,61.6,141.6,54.2,137.4,49.8z"/>
<path fill-rule="evenodd" clip-rule="evenodd" fill="#DDE1E3" d="M123.6,64.4c4.1,4.4,10.6,4.1,14.4-0.7c1.5-1.9,2.4-4.3,2.6-6.7
	c0.4,3.3-0.5,6.8-2.6,9.5c-3.8,4.8-10.3,5.1-14.4,0.7c-2.5-2.6-3.6-6.3-3.2-9.9C120.7,59.9,121.8,62.4,123.6,64.4z"/>
<path fill-rule="evenodd" clip-rule="evenodd" fill="#95A6B1" d="M123.2,61.1c1.2,1.3,3.1,1.2,4.2-0.2c1.1-1.4,1-3.6-0.2-4.9
	c-1-1-2.4-1.2-3.5-0.5c0,0,0,0,0,0c1.7-2.1,4.6-2.3,6.5-0.3c1.9,2,2,5.3,0.3,7.5c-1.7,2.1-4.6,2.3-6.5,0.3c-0.7-0.7-1.1-1.6-1.3-2.5
	C122.9,60.7,123,60.9,123.2,61.1z"/>
<path fill-rule="evenodd" clip-rule="evenodd" fill="#F1F5F7" d="M118.4,37.1c2.8,3,2.4,7.4-1,9.8c-3.4,2.4-8.4,1.9-11.3-1.1
	c-2.8-3-2.4-7.4,1-9.8C110.6,33.6,115.6,34.1,118.4,37.1z"/>
<path fill-rule="evenodd" clip-rule="evenodd" fill="#DDE1E3" d="M107.2,36c2.3-1.6,5.4-1.9,8-1c-2.2-0.4-4.6,0.1-6.5,1.4
	c-3.4,2.4-3.9,6.8-1,9.8c0.9,1,2,1.7,3.3,2.1c-1.8-0.3-3.5-1.1-4.8-2.5C103.3,42.8,103.8,38.5,107.2,36z"/>
<path fill-rule="evenodd" clip-rule="evenodd" fill="#95A6B1" d="M108.4,45c0.5,0.6,1.5,0.7,2.2,0.2c0.7-0.5,0.7-1.3,0.2-1.9
	c-0.5-0.6-1.5-0.7-2.2-0.2c-0.1,0-0.1,0.1-0.1,0.1c0.1-0.2,0.3-0.4,0.5-0.5c1-0.7,2.5-0.6,3.4,0.3c0.8,0.9,0.7,2.2-0.3,2.9
	c-1,0.7-2.5,0.6-3.4-0.3c-0.3-0.3-0.5-0.7-0.5-1C108.2,44.7,108.3,44.8,108.4,45z"/>
<g>
	<path fill-rule="evenodd" clip-rule="evenodd" fill="#DBB692" d="M106.2,36.2c1.2-0.8,2.5-1.3,3.9-1.5c-1.1,0.2-2.1,0.7-3,1.3
		c-3.4,2.4-3.9,6.8-1,9.8c1.9,2,4.7,2.8,7.3,2.5c-2.9,0.7-6.2-0.2-8.3-2.4C102.3,43,102.8,38.6,106.2,36.2z"/>
	<path fill-rule="evenodd" clip-rule="evenodd" fill="#DBB692" d="M123,50.5c-3.8,4.8-3.5,12.2,0.6,16.6c4.1,4.4,10.6,4.1,14.4-0.7
		c2.1-2.7,3-6.2,2.6-9.5c0.6,3.7-0.2,7.7-2.6,10.7c-4,5-10.8,5.3-15.1,0.7c-4.4-4.6-4.6-12.4-0.6-17.4c1.4-1.7,3.1-2.9,4.9-3.5
		C125.6,48,124.2,49,123,50.5z"/>
</g>
<path fill-rule="evenodd" clip-rule="evenodd" fill="#FFFFFF" d="M129.8,63.3c0.2,0.2,0.2,0.6,0,0.8c-0.2,0.2-0.6,0.2-0.8,0
	c-0.2-0.2-0.2-0.6,0-0.8C129.3,63,129.6,63,129.8,63.3L129.8,63.3z M129.6,66.9c-0.4,0.4-1,0.4-1.4,0c-0.4-0.4-0.4-1,0-1.4
	c0.4-0.4,1-0.4,1.4,0C130,65.8,130,66.5,129.6,66.9z"/>
<path fill-rule="evenodd" clip-rule="evenodd" fill="#FFFFFF" d="M111.2,46.2c0.1,0.1,0.1,0.3,0,0.4c-0.1,0.1-0.3,0.1-0.4,0
	c-0.1-0.1-0.1-0.3,0-0.4C111,46.1,111.1,46.1,111.2,46.2L111.2,46.2z M111.1,47.7c-0.2,0.2-0.4,0.2-0.6,0c-0.2-0.2-0.2-0.4,0-0.6
	c0.2-0.2,0.4-0.2,0.6,0C111.3,47.3,111.3,47.6,111.1,47.7z"/>
<g>
	<path fill-rule="evenodd" clip-rule="evenodd" fill="#F1F5F7" d="M111.2,76.7l-2,0.8l1.6-1.4c-0.7-1.1-1.4-2.1-2.2-3.1
		c2.4,2.2,5,3.9,7.4,4.9l1.9-2.4l-1,2.7c4.8,1.7,9.1,0.4,10.9-5.8c-14-8.4-24.5-18.1-29-30.1c-3,3.5-3.3,8.3-1.8,13.3l3.6-0.7
		l-3.2,1.7c0.6,1.7,1.4,3.4,2.3,5.1l1.5-0.5l-1.2,0.9c0.9,1.6,1.9,3.1,3,4.6c-3.8-3.5-8-6-11.7-6.8c3.1,12.4,14.6,25,24.9,28
		C115.3,84.3,113.6,80.4,111.2,76.7z"/>
	<path fill-rule="evenodd" clip-rule="evenodd" fill="#DDE1E3" d="M127,74.4c0.3-0.6,0.5-1.3,0.8-2c-14-8.4-24.5-18.1-29-30.1
		C103.2,54,112.5,68.4,127,74.4z"/>
	<g>
		<path fill="#D0A486" d="M133.2,75.5c-1.9,8.8-6.3,12.7-11.4,13.2c6,0.1,11.2-3.7,13.2-13.5l0,0c-3.1-1.1-6-2.3-8.6-3.6
			C128.6,72.9,130.9,74.2,133.2,75.5L133.2,75.5z"/>
		<path fill="#D0A486" d="M102.3,49.3c-1.8-3.6-3-7.4-3.9-11.5c-6.3,4.3-8.5,10.4-8,16.9c-0.3-6,1.8-11.6,7.4-15.7
			C98.8,42.7,100.3,46.1,102.3,49.3z"/>
	</g>
	<path fill-rule="evenodd" clip-rule="evenodd" fill="#732706" d="M108.6,72.9c0.8,1,1.5,2.1,2.2,3.1l-1.6,1.4l2-0.8
		c2.3,3.7,4.1,7.6,4.9,11.3c0,0,0,0,0,0c7.5,2.2,14.5-0.7,17.1-12.6l0,0c-1.9-1-3.7-2.1-5.5-3.1l0,0c-1.8,6.2-6.1,7.4-10.9,5.8
		l1-2.7l-1.9,2.4C113.6,76.8,111,75.1,108.6,72.9z M91.2,60C91.2,60,91.2,60,91.2,60c3.7,0.7,7.9,3.3,11.7,6.8c-1.1-1.5-2.1-3-3-4.6
		l1.2-0.9l-1.5,0.5c-0.9-1.7-1.7-3.4-2.3-5.1l3.2-1.7L97,55.6c-1.5-5-1.2-9.8,1.8-13.3c-0.4-1-0.7-2.1-1-3.2
		C90.6,44.3,89.3,52.1,91.2,60z"/>
</g>
<polygon fill-rule="evenodd" clip-rule="evenodd" fill="#EBF5F2" points="62.1,63.3 75.4,63.2 76.1,67.3 60.8,66.6 42.3,52.4 
	47.7,49.5 "/>
<path fill-rule="evenodd" clip-rule="evenodd" fill="#D7E1DE" d="M50.1,58.4l10.7,8.3l7,0.3l-6.7-1.1L50.1,58.4z"/>
<polygon fill-rule="evenodd" clip-rule="evenodd" fill="#FFFFF5" points="47.7,49.5 62.1,63.3 75.4,63.2 61.6,64.6 "/>
<polygon fill-rule="evenodd" clip-rule="evenodd" fill="#EFCAA6" points="42.4,46.4 42.5,46.4 40.2,44.2 45.8,43.6 46.7,46 
	48.7,45.9 49.1,59.2 36.9,54.4 "/>
<polygon fill-rule="evenodd" clip-rule="evenodd" fill="#FFDEBA" points="46.7,46 48.7,45.9 49.1,59.2 47.9,46.9 "/>
<polygon fill-rule="evenodd" clip-rule="evenodd" fill="#EBF5F2" points="86.8,105 73.5,99.9 68.9,104.7 86.7,108.2 101.3,99.3 
	98.1,92.6 "/>
<polygon fill-rule="evenodd" clip-rule="evenodd" fill="#FFFFF5" points="87,107.3 96.2,102.4 86.7,108.2 68.9,104.7 "/>
<polygon fill-rule="evenodd" clip-rule="evenodd" fill="#D7E1DE" points="73.5,99.9 86.8,105 98.1,92.6 86.9,105.9 "/>
<path fill="#3C3C3B" d="M30.6,83.7c0.1-0.4,0.2-0.8,0.4-1.2l11.7-23.3c0.2-0.4,0.5-0.8,0.8-1.1c0.3-0.3,0.6-0.5,1-0.6
	c0.3-0.1,0.7-0.2,1-0.1c0.3,0.1,0.7,0.2,1,0.4l34.7,28.1c0.4,0.3,0.8,0.8,1,1.3c0.3,0.5,0.4,1,0.5,1.6c0.1,0.5,0.1,1.1-0.1,1.7
	c-0.1,0.5-0.3,1.1-0.7,1.5l-17.1,25.4c-0.3,0.4-0.6,0.7-1,0.9c-0.4,0.2-0.8,0.3-1.2,0.3c-0.4,0-0.8-0.1-1.2-0.3
	c-0.4-0.2-0.8-0.5-1.1-0.8L31.4,87.1c-0.3-0.3-0.5-0.6-0.6-1c-0.2-0.4-0.3-0.8-0.3-1.2C30.5,84.5,30.5,84.1,30.6,83.7z"/>
<g>
	<polygon fill-rule="evenodd" clip-rule="evenodd" fill="#EFCAA6" points="74.3,109.6 78.5,100.8 74.5,94.3 64.3,110.7 	"/>
	<polygon fill-rule="evenodd" clip-rule="evenodd" fill="#FFDEBA" points="74,108.1 77.1,103.7 74.3,109.6 64.3,110.7 65.4,109 	"/>
	<polygon fill-rule="evenodd" clip-rule="evenodd" fill="#EFCAA6" points="77.7,101.8 79.3,98.5 78.2,94.7 75.2,99.1 	"/>
</g>
</svg>
