<?xml version="1.0" encoding="utf-8"?>
<!-- Generator: Adobe Illustrator 18.1.1, SVG Export Plug-In . SVG Version: 6.00 Build 0)  -->
<svg version="1.1" id="Ebene_1" xmlns="http://www.w3.org/2000/svg" xmlns:xlink="http://www.w3.org/1999/xlink" x="0px" y="0px"
	 viewBox="0 0 320.3 260" enable-background="new 0 0 320.3 260" xml:space="preserve">
<path fill="#A0220A" d="M308.4,166.3l11.9,2.9l-18.9-18.2l1.4,26.2l4.5-10.5c0.1,0.2,0.1,0.5,0.2,0.7c1,4.6,1.4,9.3,1,13.9
	c-0.5,4.6-1.9,9-4.3,12.7c-2.4,3.7-5.8,6.7-9.7,8.9c-3.9,2.1-8.2,3.5-12.6,4c-4.4,0.6-8.9,0.4-13.1-0.5c-4.2-0.9-8.2-2.6-11.3-5.1
	c-1.5-1.2-2.8-2.7-3.7-4.2c-0.5-0.8-0.8-1.6-1.1-2.4c-0.1-0.2-0.2-0.5-0.2-0.7l2.3-6c0,0-75.5-0.4-75.6,0
	c-1.6,6.5-12.2,30.6-12.2,30.6l8.5,17.1c-1,0.3-2,0.5-3.1,0.8c-8.7,3.4-11.6,6.8-11.8,12.3c2.3,0,4.8-0.3,7.3-0.8
	c-0.8,2-0.8,4.1-0.3,6.4c7.1-2.2,14.8-7,20.6-12.2l-11.8-22.8l11.8-19.9c19.4,8.9,31.8,9.7,53.6,0.6l-10.1,20.2l11.6,17.9
	c-1.8,1.1-3.6,2.2-5.4,3.3c-7.3,5.8-9,10-7.5,15.3c2.2-0.7,4.4-1.8,6.7-3c-0.1,2.2,0.5,4.2,1.7,6.2c6.1-4.2,12-11.1,16-17.9
	L242.3,221l6.3-16.5c1.3,1.3,2.7,2.5,4.1,3.5c2.3,1.6,4.8,2.7,7.3,3.6c2.5,0.9,5.1,1.4,7.7,1.8c5.1,0.7,10.3,0.4,15.3-0.7
	c5-1.1,9.8-3,14-5.8c2.1-1.4,4.1-3.1,5.8-4.9c1.7-1.9,3.2-3.9,4.4-6.2c1.2-2.2,2.1-4.6,2.7-7c0.6-2.4,0.9-4.9,0.9-7.3
	c0.1-4.9-0.8-9.7-2.2-14.3C308.6,166.8,308.5,166.5,308.4,166.3z"/>
<polygon fill-rule="evenodd" clip-rule="evenodd" fill="#EFCAA6" points="126,169.5 128,164.7 133.1,162.2 131.3,169.6 "/>
<path fill-rule="evenodd" clip-rule="evenodd" fill="#EBF5F2" d="M197.1,148.1l15.1,24.6l18.6-23.7c0.6-0.1,1.3-0.1,1.9-0.2
	C220.7,150.1,208.8,149.7,197.1,148.1z"/>
<polygon fill-rule="evenodd" clip-rule="evenodd" points="213.6,155.7 210.1,148.3 221.5,148.3 216.7,155.5 218,182.5 209.1,190.2 
	203.4,182.5 "/>
<polygon fill-rule="evenodd" clip-rule="evenodd" points="190.6,39.4 184,39.4 173.4,48.5 174.8,65.5 "/>
<path fill-rule="evenodd" clip-rule="evenodd" fill="#A0220A" d="M170.1,72.7c0.8-1.8,2.3-2.8,3.8-2.8c3.6-21.8,15.5-38.3,45.6-38.3
	c31.4,0,42.3,17.6,43.9,42.4c0,0,0,0,0,0c2.6-2.3,5.8-1.7,7.2,1.4c1.4,3.1,0.4,7.5-2.2,9.8c-1.6,1.4-3.4,1.7-4.9,1.1
	c-0.7,18.1-4.7,38.6-8.6,58.4c-26.1,7.1-51.1,5.9-75.6,0c-2.8-17.8-7.3-41.1-6.6-61.8c-0.2-0.1-0.3-0.2-0.5-0.4
	C169.6,80.2,168.7,75.8,170.1,72.7z"/>
<path opacity="0.3" fill-rule="evenodd" clip-rule="evenodd" fill="#FFFFFF" d="M185.8,93.9c0-25.3,6-45.6,15.7-59.8
	c-17.1,5.4-24.8,19-27.6,35.8c-1.6,0-3,1-3.8,2.8c-1.4,3.1-0.4,7.5,2.2,9.8c0.2,0.1,0.3,0.3,0.5,0.4c-0.7,20.8,3.8,44.1,6.6,61.8
	c3.8,0.9,7.5,1.7,11.3,2.4C187.4,129.3,185.8,110.6,185.8,93.9z"/>
<path fill-rule="evenodd" clip-rule="evenodd" fill="#F1F5F7" d="M227.5,66.6c-8.7,0-14.7,7-13.5,15.7c1.2,8.7,9.3,15.7,17.9,15.7
	c8.7,0,14.7-7,13.5-15.7C244.2,73.6,236.2,66.6,227.5,66.6z"/>
<path fill-rule="evenodd" clip-rule="evenodd" fill="#DDE1E3" d="M229,95.3c8.7,0,14.7-7,13.5-15.7c-0.5-3.5-2.1-6.8-4.4-9.4
	c3.8,2.9,6.6,7.2,7.3,12c1.2,8.7-4.8,15.7-13.5,15.7c-5.2,0-10.1-2.5-13.5-6.3C221.5,94,225.2,95.3,229,95.3z"/>
<path fill-rule="evenodd" clip-rule="evenodd" fill="#A0220A" d="M219.3,86.7c0-2.5,2-4.3,4.6-4c2.5,0.3,4.6,2.7,4.6,5.2
	c0,2-1.3,3.6-3.1,3.9c0,0,0,0,0.1,0c3.9,0.5,7-2.2,7-6.1c0-3.9-3.2-7.5-7.1-8c-3.9-0.5-7,2.2-7,6.1c0,1.4,0.4,2.7,1.1,3.9
	C219.3,87.4,219.3,87.1,219.3,86.7z"/>
<path fill-rule="evenodd" clip-rule="evenodd" fill="#F1F5F7" d="M195.5,73.9c5.9,0,10,4.8,9.2,10.7c-0.8,5.9-6.3,10.7-12.2,10.7
	c-5.9,0-10-4.8-9.2-10.7C184.1,78.7,189.6,73.9,195.5,73.9z"/>
<path fill-rule="evenodd" clip-rule="evenodd" fill="#DDE1E3" d="M183.3,84.6c0.6-4,3.3-7.5,6.8-9.4c-2.6,2-4.5,4.9-5,8.2
	c-0.8,5.9,3.3,10.7,9.2,10.7c1.9,0,3.7-0.5,5.4-1.3c-2.1,1.6-4.6,2.5-7.3,2.5C186.6,95.3,182.4,90.5,183.3,84.6z"/>
<path fill-rule="evenodd" clip-rule="evenodd" fill="#A0220A" d="M191.7,90.5c1.1,0,2.2-0.9,2.4-2.1c0.2-1.1-0.6-2.1-1.8-2.1
	c-1.1,0-2.2,0.9-2.4,2.1c0,0.1,0,0.2,0,0.3c-0.1-0.3-0.1-0.7,0-1c0.2-1.8,1.9-3.2,3.6-3.2c1.8,0,3,1.4,2.7,3.2
	c-0.2,1.8-1.9,3.2-3.6,3.2c-0.6,0-1.2-0.2-1.6-0.5C191.2,90.4,191.5,90.5,191.7,90.5z"/>
<polygon fill-rule="evenodd" clip-rule="evenodd" points="182,77.7 205.7,80.2 204.8,74.8 188.9,70.3 "/>
<polygon fill-rule="evenodd" clip-rule="evenodd" points="244,70.7 212.9,75.1 215,69 235.2,62.5 "/>
<path fill-rule="evenodd" clip-rule="evenodd" fill="#7F1600" d="M203.6,93.5c0.7,2.6,3.1,4.5,5.9,4.5c1.1,0,2.1-0.3,3-0.8
	c-0.4,0-0.8,0.1-1.2,0.1C208.2,97.2,205.4,95.8,203.6,93.5z"/>
<path opacity="0.3" fill-rule="evenodd" clip-rule="evenodd" fill="#FFFFFF" d="M203.6,93.5c0,0,2.1,1.9,4.5,2.8
	c2.4,0.9,4.4,0.9,4.4,0.9c-0.4,0-0.8,0.1-1.2,0.1C208.2,97.2,205.4,95.8,203.6,93.5z"/>
<g>
	<path fill-rule="evenodd" clip-rule="evenodd" fill="#7F1600" d="M182.5,85.8c0.3-2,1.1-3.9,2.4-5.6c-0.8,1.3-1.3,2.8-1.6,4.4
		c-0.8,5.9,3.3,10.7,9.2,10.7c3.9,0,7.6-2.1,9.9-5.1c-2.2,3.7-6.3,6.3-10.7,6.3C185.8,96.5,181.6,91.7,182.5,85.8z"/>
	<path fill-rule="evenodd" clip-rule="evenodd" fill="#7F1600" d="M214,82.3c1.2,8.7,9.3,15.7,17.9,15.7c8.7,0,14.7-7,13.5-15.7
		c-0.7-4.9-3.5-9.2-7.4-12.1c4.5,3,7.8,7.8,8.6,13.3c1.3,9.1-5.1,16.5-14.2,16.5s-17.5-7.4-18.8-16.5c-0.4-3.1,0-6.1,1.2-8.6
		C213.9,77.1,213.6,79.6,214,82.3z"/>
</g>
<path fill-rule="evenodd" clip-rule="evenodd" fill="#7F1600" d="M196.6,132.2c0.8,4.6,1.7,9.8,5.3,13.4c2.6,2.5,5.8,1,8-1.2
	c0.3-0.3,0.6-0.6,0.8-0.9c0-0.1-0.1-0.2-0.1-0.3c-0.7-1.6-2-6.7,0.9-7.3c4.2-0.8,1.8,6.4,0.7,7.8c0.4,0.8,1,1.6,1.8,2.2
	c3,2.2,6-2.1,7.2-4c2-3.2,2.7-6.2,3.2-9.8c1,4.1-2.8,16.6-9.4,15.4c-0.9-0.2-1.7-0.7-2.3-1.3c-0.5-0.4-0.9-1-1.2-1.5
	c-0.2,0.2-0.4,0.4-0.5,0.5c-1.3,1.3-3.1,2.5-5,2.7c-4.2,0.5-6.8-3.8-7.8-6.9C197,138,196.4,135.3,196.6,132.2L196.6,132.2z
	 M211.6,142.1c0.6-1,1.1-2.3,0.9-3.5c-0.3-2-1.2-1.6-1.4,0.1C211,139.9,211.3,141,211.6,142.1z"/>
<path fill-rule="evenodd" clip-rule="evenodd" fill="#FFFFFF" d="M222.5,86c0.5,0,0.8,0.4,0.8,0.8c0,0.5-0.4,0.8-0.8,0.8
	c-0.5,0-0.8-0.4-0.8-0.8C221.7,86.4,222,86,222.5,86L222.5,86z M220.5,88.4c0.8,0,1.4,0.6,1.4,1.4c0,0.8-0.6,1.4-1.4,1.4
	c-0.8,0-1.4-0.6-1.4-1.4C219,89,219.7,88.4,220.5,88.4z"/>
<path fill-rule="evenodd" clip-rule="evenodd" fill="#FFFFFF" d="M190.4,88.8c0.2,0,0.4,0.2,0.4,0.4c0,0.2-0.2,0.4-0.4,0.4
	c-0.2,0-0.4-0.2-0.4-0.4C190.1,88.9,190.2,88.8,190.4,88.8L190.4,88.8z M189.6,89.8c0.3,0,0.6,0.3,0.6,0.6c0,0.3-0.3,0.6-0.6,0.6
	c-0.3,0-0.6-0.3-0.6-0.6C188.9,90.1,189.2,89.8,189.6,89.8z"/>
<path fill-rule="evenodd" clip-rule="evenodd" fill="#7F1600" d="M262,81c0.7-3.1,4.4-4.7,6.2-1.3c0-0.1-0.1-0.2-0.1-0.4
	c-0.8-2-3-2.9-4.7-1.4c1.8-2.4,5.2-3.3,7-0.2C267.1,71.4,261.4,77.4,262,81z"/>
<path fill-rule="evenodd" clip-rule="evenodd" d="M270.6,157.1l-9,22.7c3.4-1.7,6.9-0.9,10.6,2.1c1.3-7.7,4.8-25.2,4.8-25.2
	l-22-12.1l-6,8.9L270.6,157.1z"/>
<path opacity="0.15" fill-rule="evenodd" clip-rule="evenodd" d="M271.5,156.7l-12.6-1.4l11.7,1.9l-3.6,9.2L271.5,156.7z"/>
<path opacity="0.4" fill-rule="evenodd" clip-rule="evenodd" fill="#FFFFFF" d="M276.9,156.8l-22-12.1l-0.7,1l21.3,11.2
	c0,0-2.1,17.4-3.4,25.1C273.4,174.3,276.9,156.8,276.9,156.8z"/>
<path fill-rule="evenodd" clip-rule="evenodd" d="M167,166.4l-30,4c2.5,2.9,5.2,6.4,3.2,10.7c8.8-4.7,30.9-12.4,30.9-12.4l17.6-20.5
	l-9.5-3.6L167,166.4z"/>
<path opacity="0.15" fill-rule="evenodd" clip-rule="evenodd" d="M170.7,168c0,0-9.6,3.9-18.8,7.9c9.2-3.7,19.3-7.2,19.3-7.2
	l6.7-7.8L170.7,168z"/>
<polygon opacity="0.4" fill-rule="evenodd" clip-rule="evenodd" fill="#FFFFFF" points="167.9,167.2 179.3,144.7 167,166.4 
	144.9,169.3 "/>
<path fill-rule="evenodd" clip-rule="evenodd" d="M212.3,172.7l18.6-23.7c7.9-0.7,15.9-2.1,24-4.3V188c-24.8,8.9-51.8,8.3-75.6,0
	c0-9.5,0-37.2,0-37.2v-6c5.9,1.4,11.8,2.6,17.8,3.4L212.3,172.7z"/>
<g>
	<polygon fill-rule="evenodd" clip-rule="evenodd" fill="#5B5D57" points="230.8,161.9 225,170.4 232,163.3 233.6,151.9 	"/>
	<polygon fill-rule="evenodd" clip-rule="evenodd" fill="#5B5D57" points="194.7,151.9 196.3,163.3 203.4,170.4 197.6,161.9 	"/>
	
		<ellipse transform="matrix(0.1438 -0.9896 0.9896 0.1438 -3.6291 371.0137)" fill-rule="evenodd" clip-rule="evenodd" fill="#A0220A" cx="212.6" cy="187.6" rx="1.7" ry="1.8"/>
	
		<ellipse transform="matrix(0.1438 -0.9896 0.9896 0.1438 6.1045 362.5921)" fill-rule="evenodd" clip-rule="evenodd" fill="#A0220A" cx="212.6" cy="177.8" rx="1.7" ry="1.8"/>
</g>
<g>
	<g>
		<path fill="#7F1600" d="M250.7,98.2c6.2,11.3,5.2,19.6,0.1,25.1c6.6-5.6,8.5-14.6,1.5-27.2l0-0.1c-4.4,1.7-8.6,3.2-12.7,4.3
			C243.2,99.8,246.9,99,250.7,98.2L250.7,98.2z"/>
		<path fill="#7F1600" d="M192.6,99.3c-5.3-2.2-10.3-5.1-15-8.8c-2.8,10.7,0.7,19.4,7.4,25.9c-6-6.2-9.1-14.2-6.9-23.9
			C182.5,95.4,187.3,97.7,192.6,99.3z"/>
	</g>
	<path fill="#732706" d="M178,92.5c1.3,0.9,2.7,1.7,4.1,2.5c2.5,1.3,5.1,2.5,7.8,3.5c0,0,0,0,0,0c2.3,1.7,4.9,3.2,7.6,4.5l1.4-2
		c0.1,0,0.1,0,0.2,0l-0.9,2.2c8.4,3.7,18.2,5.3,26.8,4.5l0.3-2.2l0.2,2.2c4.3-0.5,8.3-1.6,11.7-3.3l-1.1-2.8l1.7,2.5
		c2.1-1.2,4-2.6,5.5-4.3c2.4-0.5,4.9-1,7.4-1.5l0,0.1c6.8,12.4,5,21.1-1.4,26.5c0,0,0,0,0,0c-2.3-1-4.6-1.8-6.9-2.4l-1.9,2.9
		l1.1-3.2c-14.6-3.9-30.2-1.6-39.8,5c-4-1.5-7.8-3.5-11.1-5.8c0,0,0,0,0,0C181.1,114.6,175.2,104.9,178,92.5z"/>
	<path fill="#550900" d="M207.6,118.2c0.3,1.8,0.8,3.5,1.4,5.1c9.2-3.6,21.2-4.3,32.6-1.3l-1.1,3.2l1.9-2.9c0.3,0.1,0.5,0.1,0.8,0.2
		c0-1.4,0-2.8-0.3-4.3c-0.8-5.2-3.3-9.9-6.6-13.4c-3.2,1.5-6.8,2.4-10.7,2.8l-0.2-2.2l-0.3,2.2c-5.1,0.5-10.6,0.1-16.1-1
		C207.5,109.9,206.9,113.9,207.6,118.2z"/>
	<path fill="#BE8077" d="M208.3,110.6c1.8-0.4,3.8-0.6,5.8-0.7c-3.2,1.3-6,3-7.9,4.9c3.9-2.4,9.1-4.5,14.2-4.9
		c6.9-0.4,15.4,8.4,16.2,10.9c1.2,4.1-10.1,2.2-20.2,4.3c-10,2.1-17.7-0.3-18.9-4.4C196.2,116.7,198.2,112.7,208.3,110.6z"/>
	<g>
		<path fill="#F1F5F7" d="M241.6,122l-1.1,3.2l1.9-2.9c2.3,0.7,4.7,1.5,6.9,2.4c-1.5,1.3-3.3,2.4-5.2,3.3c0,0,0,0,0,0
			c-10.9,5.1-28.1,4.5-42.2-0.9C211.4,120.4,227,118.2,241.6,122z"/>
		<path fill="#F1F5F7" d="M241.8,100c0.5-0.1,1-0.2,1.5-0.3c-1.5,1.7-3.3,3.1-5.5,4.3l-1.7-2.5l1.1,2.8c-3.4,1.7-7.4,2.8-11.7,3.3
			l-0.2-2.2l-0.3,2.2c-8.6,0.8-18.3-0.7-26.8-4.5l0.9-2.2C211.9,103.5,226.3,102.8,241.8,100z"/>
		<path fill="#F1F5F7" d="M199,100.9l-1.4,2c-2.7-1.3-5.3-2.7-7.6-4.5C192.8,99.4,195.8,100.2,199,100.9z"/>
	</g>
</g>
<polygon fill-rule="evenodd" clip-rule="evenodd" fill="#A0220A" points="145.2,181.5 142.6,167.8 129,163.9 136,186.4 "/>
<polygon fill-rule="evenodd" clip-rule="evenodd" fill="#EFCAA6" points="131.3,165.6 126.5,163.7 121.1,165.6 127.7,169.5 "/>
<polygon fill-rule="evenodd" clip-rule="evenodd" fill="#A0220A" points="279.5,185.3 276.1,174.1 261.4,177.5 255.9,192.2 "/>
<path opacity="0.3" fill-rule="evenodd" clip-rule="evenodd" fill="#FFFFFF" d="M279.5,185.3l-3.4-11.2l0.7,10.4l-3.8,2.8
	L279.5,185.3z"/>
<polygon fill-rule="evenodd" clip-rule="evenodd" fill="#A0220A" points="272.9,187.2 258.9,194 260.7,187.2 269.7,182.9 "/>
<g>
	<path fill-rule="evenodd" clip-rule="evenodd" d="M91.9,243.6c-2.6-0.9-5.2-1.7-7.8-2.6c-1.4,2.5-2.6,5.4-4,7.9
		c6.7,4,15.3,7.2,22.6,7.9C102.9,251.2,100.3,247.6,91.9,243.6z"/>
	<path fill-rule="evenodd" clip-rule="evenodd" d="M26.1,244.1c7.3,5.8,9,10,7.5,15.3c-7-2.4-14.6-7.5-20.2-12.8
		c1.9-2.1,3.8-4.7,5.7-6.8C21.4,241.3,23.7,242.7,26.1,244.1z"/>
	<path fill-rule="evenodd" clip-rule="evenodd" fill="#575756" d="M16.4,188l12.6,33l-12.6,21.1c0,0,2.1,1.8,4.6,1.8
		c2.7,0,4.2-1.8,4.2-1.8l14.2-21.9L29.3,200c21.8,9.2,34.2,8.3,53.6-0.6l11.8,19.9l-11.8,22.8c0,0,1.9,1.4,5.3,1.4
		c3,0,4.2-1.4,4.2-1.4l11.8-23.6c0,0-10.6-24.1-12.2-30.6C91.9,187.6,16.4,188,16.4,188z"/>
</g>
<path fill-rule="evenodd" clip-rule="evenodd" fill="#EBF5F2" d="M16.4,114.8v34.6V188c25.2,5.9,50.4,6.3,75.6,0c0-9.5,0-39,0-39
	c0-11.4,0-22.8,0-34.2H16.4z"/>
<polygon fill-rule="evenodd" clip-rule="evenodd" fill="#754D33" points="80.7,39.4 87.2,39.4 97.9,48.5 96.5,65.5 "/>
<polygon fill-rule="evenodd" clip-rule="evenodd" fill="#A0220A" points="56.8,155.8 61.1,148.3 49.7,148.3 55.1,157.6 53.2,182.5 
	62.1,190.2 67.9,182.5 "/>
<path fill-rule="evenodd" clip-rule="evenodd" fill="#EFCAA6" d="M101.2,72.7c-0.8-1.8-2.3-2.8-3.8-2.8
	c-3.6-21.8-15.5-38.3-45.6-38.3C20.4,31.6,9.5,49.3,7.9,74c0,0,0,0,0,0c-2.6-2.3-5.8-1.7-7.2,1.4c-1.4,3.1-0.4,7.5,2.2,9.8
	c1.6,1.4,3.4,1.7,4.9,1.1c0.7,18.1,4.7,38.6,8.6,58.4c26.1,7.1,51.1,5.9,75.6,0c2.8-17.8,7.3-41.1,6.6-61.8c0.2-0.1,0.3-0.2,0.5-0.4
	C101.6,80.2,102.6,75.8,101.2,72.7z"/>
<path fill-rule="evenodd" clip-rule="evenodd" fill="#F1F5F7" d="M43.8,66.6c8.7,0,14.7,7,13.5,15.7C56,91,48,98,39.3,98
	c-8.7,0-14.7-7-13.5-15.7C27.1,73.6,35.1,66.6,43.8,66.6z"/>
<path fill-rule="evenodd" clip-rule="evenodd" fill="#DDE1E3" d="M42.2,95.3c-8.7,0-14.7-7-13.5-15.7c0.5-3.5,2.1-6.8,4.4-9.4
	c-3.8,2.9-6.6,7.2-7.3,12C24.6,91,30.7,98,39.3,98c5.2,0,10.1-2.5,13.5-6.3C49.8,94,46.1,95.3,42.2,95.3z"/>
<path fill-rule="evenodd" clip-rule="evenodd" fill="#95A6B1" d="M50.6,91c-2.5,0-4.3-2.1-4-4.6c0.4-2.5,2.7-4.6,5.3-4.6
	c2,0,3.6,1.3,3.9,3.1c0,0,0,0,0-0.1c0.6-3.9-2.2-7.1-6.1-7.1c-3.9,0-7.5,3.2-8.1,7.1c-0.6,3.9,2.2,7.1,6.1,7.1
	c1.4,0,2.7-0.4,3.9-1.1C51.3,90.9,50.9,91,50.6,91z"/>
<path fill-rule="evenodd" clip-rule="evenodd" fill="#F1F5F7" d="M75.8,73.9c-5.9,0-10,4.8-9.2,10.7c0.8,5.9,6.3,10.7,12.2,10.7
	c5.9,0,10-4.8,9.2-10.7C87.2,78.7,81.7,73.9,75.8,73.9z"/>
<path fill-rule="evenodd" clip-rule="evenodd" fill="#DDE1E3" d="M88,84.6c-0.6-4-3.3-7.5-6.8-9.4c2.6,2,4.5,4.9,5,8.2
	c0.8,5.9-3.3,10.7-9.2,10.7c-1.9,0-3.7-0.5-5.4-1.3c2.1,1.6,4.6,2.5,7.3,2.5C84.7,95.3,88.8,90.5,88,84.6z"/>
<path fill-rule="evenodd" clip-rule="evenodd" fill="#95A6B1" d="M81.9,90.5c-1.1,0-2.2-0.9-2.4-2.1c-0.2-1.1,0.6-2.1,1.8-2.1
	c1.1,0,2.2,0.9,2.4,2.1c0,0.1,0,0.2,0,0.3c0.1-0.3,0.1-0.7,0-1c-0.2-1.8-1.9-3.2-3.6-3.2c-1.8,0-3,1.4-2.7,3.2
	c0.2,1.8,1.9,3.2,3.6,3.2c0.6,0,1.2-0.2,1.6-0.5C82.4,90.4,82.1,90.5,81.9,90.5z"/>
<polygon fill-rule="evenodd" clip-rule="evenodd" fill="#754D33" points="34.4,56.7 47.8,52.7 47.2,57.1 30.2,65.2 "/>
<polygon fill-rule="evenodd" clip-rule="evenodd" fill="#754D33" points="77.3,57 64.1,52.1 64.5,56.5 80.9,65.8 "/>
<path fill-rule="evenodd" clip-rule="evenodd" fill="#D0A486" d="M67.6,93.5c-0.7,2.6-3.1,4.5-5.8,4.5c-1.1,0-2.1-0.3-3-0.8
	c0.4,0,0.8,0.1,1.2,0.1C63.1,97.2,65.8,95.8,67.6,93.5z"/>
<path fill-rule="evenodd" clip-rule="evenodd" fill="#FFDEBA" d="M67.6,93.5c0,0-2.1,1.9-4.5,2.8c-2.4,0.9-4.4,0.9-4.4,0.9
	c0.4,0,0.8,0.1,1.2,0.1C63.1,97.2,65.8,95.8,67.6,93.5z"/>
<g>
	<path fill-rule="evenodd" clip-rule="evenodd" fill="#DBB692" d="M88.8,85.8c-0.3-2-1.1-3.9-2.4-5.6c0.8,1.3,1.3,2.8,1.6,4.4
		c0.8,5.9-3.3,10.7-9.2,10.7c-3.9,0-7.6-2.1-9.9-5.1c2.2,3.7,6.3,6.3,10.7,6.3C85.5,96.5,89.6,91.7,88.8,85.8z"/>
	<path fill-rule="evenodd" clip-rule="evenodd" fill="#DBB692" d="M57.3,82.3C56,91,48,98,39.3,98c-8.7,0-14.7-7-13.5-15.7
		c0.7-4.9,3.5-9.2,7.4-12.1c-4.5,3-7.8,7.8-8.6,13.3c-1.3,9.1,5.1,16.5,14.2,16.5c9.1,0,17.5-7.4,18.8-16.5c0.4-3.1,0-6.1-1.2-8.6
		C57.3,77.1,57.6,79.6,57.3,82.3z"/>
</g>
<path fill-rule="evenodd" clip-rule="evenodd" fill="#C5997C" d="M46.8,132.2c0.8,4.6,1.7,9.8,5.3,13.4c2.6,2.5,5.8,1,8-1.2
	c0.3-0.3,0.6-0.6,0.8-0.9c0-0.1-0.1-0.2-0.1-0.3c-0.7-1.6-2-6.7,0.9-7.3c4.2-0.8,1.8,6.4,0.7,7.8c0.4,0.8,1,1.6,1.8,2.2
	c3,2.2,6-2.1,7.2-4c2-3.2,2.7-6.2,3.2-9.8c1,4.1-2.8,16.6-9.4,15.4c-0.9-0.2-1.7-0.7-2.3-1.3c-0.5-0.4-0.9-1-1.2-1.5
	c-0.2,0.2-0.4,0.4-0.5,0.5c-1.3,1.3-3.1,2.5-5,2.7c-4.2,0.5-6.8-3.8-7.8-6.9C47.3,138,46.6,135.3,46.8,132.2L46.8,132.2z
	 M61.9,142.1c0.6-1,1.1-2.3,0.9-3.5c-0.3-2-1.2-1.6-1.4,0.1C61.2,139.9,61.5,141,61.9,142.1z"/>
<path fill-rule="evenodd" clip-rule="evenodd" fill="#754D33" d="M85.5,29.5c2-3.4,2.7-7.8,2-13.7c-24.9,21-72.7-19.5-76.1,36
	l-4.8,5.2L7.9,74l15-26.7C50.4,34.4,92.5,58.1,105.2,27C99.8,29.5,92.9,29.9,85.5,29.5z"/>
<path fill-rule="evenodd" clip-rule="evenodd" fill="#FFFFFF" d="M41.7,86.2c0.5,0,0.8,0.4,0.8,0.8c0,0.5-0.4,0.8-0.8,0.8
	c-0.5,0-0.8-0.4-0.8-0.8C40.9,86.5,41.2,86.2,41.7,86.2L41.7,86.2z M39.7,88.5c0.8,0,1.4,0.6,1.4,1.4c0,0.8-0.6,1.4-1.4,1.4
	c-0.8,0-1.4-0.6-1.4-1.4C38.2,89.2,38.9,88.5,39.7,88.5z"/>
<path fill-rule="evenodd" clip-rule="evenodd" fill="#FFFFFF" d="M77.9,88.8c0.2,0,0.4,0.2,0.4,0.4c0,0.2-0.2,0.4-0.4,0.4
	c-0.2,0-0.4-0.2-0.4-0.4C77.5,88.9,77.7,88.8,77.9,88.8L77.9,88.8z M77,89.8c0.3,0,0.6,0.3,0.6,0.6c0,0.3-0.3,0.6-0.6,0.6
	c-0.3,0-0.6-0.3-0.6-0.6C76.4,90.1,76.7,89.8,77,89.8z"/>
<path fill-rule="evenodd" clip-rule="evenodd" fill="#FFDEBA" d="M39.8,43.3c-6,0.4-11.7,1.6-16.9,4L7.9,74c0,0,0,0,0,0l0,0
	c-2.6-2.3-5.8-1.7-7.2,1.4c-1.4,3.1-0.4,7.5,2.2,9.8c1.6,1.4,3.4,1.7,4.9,1.1c0.7,18.1,4.7,38.6,8.6,58.4c4,1.1,7.9,2,11.9,2.7
	C20.5,104.4,17,62.9,39.8,43.3z"/>
<path fill-rule="evenodd" clip-rule="evenodd" fill="#D0A486" d="M9.3,81c-0.7-3.1-4.4-4.7-6.2-1.3c0-0.1,0.1-0.2,0.1-0.4
	c0.8-2,3-2.9,4.7-1.4c-1.8-2.4-5.2-3.3-7-0.2C4.2,71.4,9.8,77.4,9.3,81z"/>
<g>
	<path fill-rule="evenodd" clip-rule="evenodd" fill="#F1F5F7" d="M40.4,120.1l1.2,2.9l-0.2-3c1.8-0.3,3.6-0.6,5.5-0.8
		c-4.6-0.4-8.9-1.4-12.4-3l0.7-4.3l-1.9,3.7c-6.5-3.4-9.4-9.1-4.7-17.1c22.5,6.3,43.1,7.7,59.9,0.6c-0.6,6.6-5.4,11.6-12.1,15
		l-2.8-4.4l1.4,5.1c-2.3,1.1-4.9,1.9-7.5,2.6l-1-2l0.3,2.2c-2.5,0.6-5.2,1.1-7.8,1.4c7.4,0.6,14.1,2.4,18.6,5.6
		c-16,9-40.5,9.4-53.8,1.6C28.5,123.3,34.3,121.3,40.4,120.1z"/>
	<path fill-rule="evenodd" clip-rule="evenodd" fill="#DDE1E3" d="M27.3,101.3c0.4-0.9,0.8-1.8,1.4-2.8c22.5,6.3,43.1,7.7,59.9,0.6
		C72,106.1,47.8,110.5,27.3,101.3z"/>
	<g>
		<path fill="#D0A486" d="M20,95.9c-7.3,10.7-7.1,19-2.5,24.9c-6-6.2-7.1-15.3,1.1-27.2l0-0.1c4.2,2.1,8.3,4,12.2,5.5
			C27.3,98.1,23.7,97,20,95.9L20,95.9z"/>
		<path fill="#D0A486" d="M77.8,102.4c5.5-1.7,10.8-4.1,15.8-7.3c1.7,10.9-2.5,19.2-9.8,25.1c6.6-5.6,10.4-13.3,9.1-23.2
			C88.2,99.6,83.1,101.3,77.8,102.4z"/>
	</g>
	<path fill-rule="evenodd" clip-rule="evenodd" fill="#732706" d="M34.6,116.2l0.7-4.3l-1.9,3.7c-6.5-3.4-9.4-9.1-4.7-17.1l0,0
		c-2.8-0.8-5.7-1.7-8.6-2.6l0,0.1c-9.8,14.4-6,24.5,3.7,30.2c0,0,0,0,0,0c4.7-2.8,10.5-4.9,16.7-6.1l1.2,2.9l-0.2-3
		c1.8-0.3,3.6-0.6,5.5-0.8C42.3,118.7,38,117.7,34.6,116.2z M92.9,97.1c-1.4,0.8-2.9,1.4-4.4,2.1c-0.6,6.6-5.4,11.6-12.1,15
		l-2.8-4.4l1.4,5.1c-2.3,1.1-4.9,1.9-7.5,2.6l-1-2l0.3,2.2c-2.5,0.6-5.2,1.1-7.8,1.4c7.4,0.6,14.1,2.4,18.6,5.6c0,0,0,0,0,0
		C87.7,118.8,94.5,109.7,92.9,97.1z"/>
</g>
<path fill-rule="evenodd" clip-rule="evenodd" fill="#567483" d="M59,172.7l-18.6-23.7c-7.9-0.7-15.9-2.1-24-4.3V188
	c24.8,8.9,51.8,8.3,75.6,0c0-9.5,0-37.2,0-37.2v-6c-5.9,1.4-11.8,2.6-17.8,3.4L59,172.7z"/>
<g>
	<polygon fill-rule="evenodd" clip-rule="evenodd" fill="#2E4F5B" points="37.6,151.9 39.2,163.3 46.3,170.4 40.5,161.9 	"/>
	<polygon fill-rule="evenodd" clip-rule="evenodd" fill="#2E4F5B" points="73.7,161.9 67.9,170.4 75,163.3 76.6,151.9 	"/>
</g>
<g>
	
		<ellipse transform="matrix(-0.1438 -0.9896 0.9896 -0.1438 -118.5433 272.6481)" fill-rule="evenodd" clip-rule="evenodd" fill="#2E4F5B" cx="58.7" cy="187.6" rx="1.7" ry="1.8"/>
</g>
<path fill-rule="evenodd" clip-rule="evenodd" fill="#567483" d="M110.4,156.6l8.6-22.9c1.4,3.6,4.5,5.3,9.3,5.6
	c-4.2,6.6-13.3,21.9-13.3,21.9l-24.4-5.8l1.5-10.6L110.4,156.6z"/>
<path opacity="0.1" fill-rule="evenodd" clip-rule="evenodd" d="M114.2,159.9l-19.6-3.6l20.3,4.8c0,0,3.7-6.3,7.5-12.5
	C118.3,154.4,114.2,159.9,114.2,159.9z"/>
<polygon opacity="0.4" fill-rule="evenodd" clip-rule="evenodd" fill="#FFFFFF" points="111,157.8 116.1,141.2 110.4,156.6 
	91.9,144.7 91.7,146.6 "/>
<polygon fill-rule="evenodd" clip-rule="evenodd" fill="#EFCAA6" points="128.8,144.7 116.7,137.7 116.3,126.7 141.5,138 "/>
<polygon fill-rule="evenodd" clip-rule="evenodd" fill="#FFDEBA" points="127.9,142.7 120.6,140 128.8,144.7 141.5,138 138.9,136.9 
	"/>
<polygon fill-rule="evenodd" clip-rule="evenodd" fill="#EFCAA6" points="119,137.3 114.5,134.6 112.7,129.3 119.8,132 "/>
<polygon opacity="0.3" fill-rule="evenodd" clip-rule="evenodd" fill="#FFFFFF" points="145.2,181.5 142.6,167.8 129,163.9 
	141.4,168.6 "/>
<path fill-rule="evenodd" clip-rule="evenodd" fill="#567483" d="M87.1,180.5l36-11.2c-0.1,3.8,0,8.2,4.2,10.4
	c-9.8,1.8-42,5.3-42,5.3l-26.6-4.9l5.2-8.7L87.1,180.5z"/>
<path opacity="0.1" fill-rule="evenodd" clip-rule="evenodd" d="M86.1,184.1l-27.3-4l26.6,4.9c0,0,19.5-2.1,32.7-3.9
	C104.5,182.4,86.1,184.1,86.1,184.1z"/>
<path opacity="0.4" fill-rule="evenodd" clip-rule="evenodd" fill="#FFFFFF" d="M123.1,170.8c0-0.5,0-1,0-1.5l-36,11.2L64,171.4
	l22.6,10.1L123.1,170.8z"/>
<polygon fill-rule="evenodd" clip-rule="evenodd" fill="#EFCAA6" points="121.2,183.8 118.7,170 130,161.6 136,186.4 "/>
<polygon fill-rule="evenodd" clip-rule="evenodd" fill="#FFDEBA" points="121.2,183.8 118.7,170 130,161.6 120.1,170.4 "/>
<path fill="#A0220A" d="M211.8,27.1c1.4,5.6-3.7,10.1-8.5,9.1c-0.2-0.1-0.5-0.1-0.7-0.2c-11.4-3.6-17.7-15.9-14.1-27.3
	c0.8-2.4,1.9-4.5,3.3-6.4C194.2,13.1,201.4,22.4,211.8,27.1z"/>
<path opacity="0.3" fill="#FFFFFF" d="M189.6,10c0.4-2.7,1.1-5.2,2.2-7.6c-1.4,1.9-2.5,4-3.3,6.4c-3.6,11.4,2.7,23.6,14.1,27.3
	c0.2,0.1,0.4,0.1,0.7,0.2c1.1,0.2,2.2,0.2,3.2-0.1C195.4,33.8,188,22.4,189.6,10z"/>
<path fill-rule="evenodd" clip-rule="evenodd" d="M185.8,29.5c-2-3.4-2.7-7.8-2-13.7c24.9,21,72.7-19.5,76.1,36l4.8,5.2L263.4,74
	l-15-26.7C220.9,34.4,178.7,58.1,166,27C171.5,29.5,178.3,29.9,185.8,29.5z"/>
<path fill="#A0220A" d="M228.9,26.1c-0.9,5.7,4.5,9.8,9.2,8.5c0.2-0.1,0.4-0.2,0.7-0.3c11.1-4.5,16.5-17.1,12.1-28.2
	c-0.9-2.3-2.2-4.4-3.7-6.1C245.4,10.8,238.9,20.6,228.9,26.1z"/>
<path opacity="0.3" fill="#FFFFFF" d="M231.1,28.4c12.1-6.2,14.4-17.6,16-28.4c-1.6,10.8-8.1,20.6-18.1,26.1c-0.5,3,0.8,5.5,2.7,7.1
	C230.9,32.1,230.7,30.5,231.1,28.4z"/>
</svg>
