<?xml version="1.0" encoding="utf-8"?>
<!-- Generator: Adobe Illustrator 18.1.1, SVG Export Plug-In . SVG Version: 6.00 Build 0)  -->
<svg version="1.1" id="Слой_1" xmlns="http://www.w3.org/2000/svg" xmlns:xlink="http://www.w3.org/1999/xlink" x="0px" y="0px"
	 viewBox="0 0 40 40" enable-background="new 0 0 40 40" xml:space="preserve">
<g>
	<path fill="#767676" d="M38,22v15c0,0.5-0.5,1-1,1H3c-0.5,0-1-0.5-1-1V22l-2-1v16c0,1.7,1.4,3,3,3h34c1.6,0,3-1.3,3-3V21L38,22z"/>
	<path fill="#767676" d="M37,6H3C1.4,6,0,7.3,0,9v9c0.6,0.4,1.3,0.8,2,1.1V9c0-0.5,0.5-1,1-1h34c0.5,0,1,0.5,1,1v10.2
		c0.7-0.3,1.4-0.7,2-1.1V9C40,7.3,38.6,6,37,6z"/>
	<g>
		<path fill="#767676" d="M26,2c0.6,0,1,0.4,1,1v2c0,0.6-0.4,1-1,1H14c-0.6,0-1-0.4-1-1V3c0-0.6,0.4-1,1-1H26 M26,0H14
			c-1.7,0-3,1.3-3,3v2c0,1.7,1.3,3,3,3h12c1.7,0,3-1.3,3-3V3C29,1.3,27.7,0,26,0L26,0z"/>
	</g>
	<path fill="#767676" d="M38,16.9C33.6,19.4,27.2,21,20,21S6.4,19.4,2,16.9c-0.7-0.4-1.4-0.8-2-1.3V18c0.6,0.4,1.3,0.8,2,1.1
		C6.6,21.6,13,23,20,23s13.4-1.4,18-3.8c0.7-0.3,1.4-0.7,2-1.1v-2.4C39.4,16.1,38.7,16.5,38,16.9z"/>
	<path fill="#767676" d="M24,28c0,0.6-0.4,1-1,1h-6c-0.6,0-1-0.4-1-1l0,0c0-0.6,0.4-1,1-1h6C23.6,27,24,27.4,24,28L24,28z"/>
</g>
</svg>
