<?xml version="1.0" encoding="utf-8"?>
<!-- Generator: Adobe Illustrator 18.1.1, SVG Export Plug-In . SVG Version: 6.00 Build 0)  -->
<svg version="1.1" id="Слой_1" xmlns="http://www.w3.org/2000/svg" xmlns:xlink="http://www.w3.org/1999/xlink" x="0px" y="0px"
	 viewBox="0 0 40 40" enable-background="new 0 0 40 40" xml:space="preserve">
<g id="HOTELS_1_">
	<path fill="#fff" d="M36.9,7.8h-8.1v2h8.1c0.5,0,0.9,0.4,0.9,0.8V37c0,0.5-0.4,0.8-0.8,0.8H2.8c-0.6,0-1-0.4-1-0.8V10.7
		c0-0.5,0.4-0.8,0.9-0.8h8.1v-2H2.7c-1.6,0-2.9,1.3-2.9,2.8V37c0,1.6,1.3,2.8,3,2.8H37c1.5,0,2.8-1.3,2.8-2.8V10.7
		C39.8,9.1,38.5,7.8,36.9,7.8z"/>
	<path fill="#fff" d="M22.8,28.8h-6c-1.6,0-3,1.3-3,3v8h2v-8c0-0.5,0.5-1,1-1h6c0.5,0,1,0.5,1,1v8h2v-8
		C25.8,30.2,24.5,28.8,22.8,28.8z"/>
	<path fill="#fff" d="M27.8-0.2h-16c-1.6,0-3,1.3-3,3v37h2v-37c0-0.5,0.5-1,1-1h16c0.5,0,1,0.4,1,1v37h2v-37
		C30.8,1.2,29.5-0.2,27.8-0.2z"/>
	<path fill="#fff" d="M23.8,22.8c0,0.6-0.4,1-1,1h-6c-0.6,0-1-0.4-1-1l0,0c0-0.6,0.4-1,1-1h6C23.4,21.8,23.8,22.3,23.8,22.8
		L23.8,22.8z"/>
	<path fill="#fff" d="M23.8,14.8c0,0.6-0.4,1-1,1h-6c-0.6,0-1-0.4-1-1l0,0c0-0.6,0.4-1,1-1h6C23.4,13.8,23.8,14.3,23.8,14.8
		L23.8,14.8z"/>
	<path fill="#fff" d="M23.8,6.8c0,0.6-0.4,1-1,1h-6c-0.6,0-1-0.4-1-1l0,0c0-0.6,0.4-1,1-1h6C23.4,5.8,23.8,6.3,23.8,6.8L23.8,6.8
		z"/>
	<path fill="#fff" d="M6.8,15.8c0,0.6-0.4,1-1,1h-1c-0.6,0-1-0.4-1-1v-1c0-0.6,0.4-1,1-1h1c0.6,0,1,0.4,1,1V15.8z"/>
	<path fill="#fff" d="M6.8,23.8c0,0.6-0.4,1-1,1h-1c-0.6,0-1-0.4-1-1v-1c0-0.6,0.4-1,1-1h1c0.6,0,1,0.4,1,1V23.8z"/>
	<path fill="#fff" d="M6.8,31.8c0,0.6-0.4,1-1,1h-1c-0.6,0-1-0.4-1-1v-1c0-0.6,0.4-1,1-1h1c0.6,0,1,0.4,1,1V31.8z"/>
	<path fill="#fff" d="M35.8,15.8c0,0.6-0.4,1-1,1h-1c-0.6,0-1-0.4-1-1v-1c0-0.6,0.4-1,1-1h1c0.6,0,1,0.4,1,1V15.8z"/>
	<path fill="#fff" d="M35.8,23.8c0,0.6-0.4,1-1,1h-1c-0.6,0-1-0.4-1-1v-1c0-0.6,0.4-1,1-1h1c0.6,0,1,0.4,1,1V23.8z"/>
	<path fill="#fff" d="M35.8,31.8c0,0.6-0.4,1-1,1h-1c-0.6,0-1-0.4-1-1v-1c0-0.6,0.4-1,1-1h1c0.6,0,1,0.4,1,1V31.8z"/>
</g>
</svg>
