<?xml version="1.0" encoding="utf-8"?>
<!-- Generator: Adobe Illustrator 18.1.1, SVG Export Plug-In . SVG Version: 6.00 Build 0)  -->
<svg version="1.1" id="Слой_1" xmlns="http://www.w3.org/2000/svg" xmlns:xlink="http://www.w3.org/1999/xlink" x="0px" y="0px"
	 viewBox="0 0 40 40" enable-background="new 0 0 40 40" xml:space="preserve">
<g id="MOVIES_1_">
	<g>
		<path fill="#fff" d="M37,14c0.6,0,1,0.4,1,1v22c0,0.6-0.4,1-1,1H3c-0.6,0-1-0.4-1-1V15c0-0.6,0.4-1,1-1H37 M37,12H3
			c-1.7,0-3,1.3-3,3v22c0,1.7,1.3,3,3,3h34c1.7,0,3-1.3,3-3V15C40,13.3,38.6,12,37,12L37,12z"/>
	</g>
	<g>
		<g>
			<path fill="#fff" d="M37,14c0.6,0,1,0.4,1,1v2c0,0.6-0.4,1-1,1H3c-0.6,0-1-0.4-1-1v-2c0-0.6,0.4-1,1-1H37 M37,12H3
				c-1.7,0-3,1.3-3,3v2c0,1.7,1.3,3,3,3h34c1.7,0,3-1.3,3-3v-2C40,13.3,38.6,12,37,12L37,12z"/>
		</g>
		<line fill="none" stroke="#fff" stroke-width="2" stroke-miterlimit="10" x1="2" y1="13" x2="8" y2="19"/>
		<line fill="none" stroke="#fff" stroke-width="2" stroke-miterlimit="10" x1="12" y1="13" x2="18" y2="19"/>
		<line fill="none" stroke="#fff" stroke-width="2" stroke-miterlimit="10" x1="22" y1="13" x2="28" y2="19"/>
		<line fill="none" stroke="#fff" stroke-width="2" stroke-miterlimit="10" x1="32" y1="13" x2="38" y2="19"/>
	</g>
	<g>
		<g>
			<path fill="#fff" d="M36.8,2.1c0.5,0,0.9,0.4,1,0.9L38,5c0,0.6-0.4,1-0.9,1.1L3.3,9c0,0-0.1,0-0.1,0c-0.5,0-0.9-0.4-1-0.9
				L2,6.1c0-0.6,0.4-1,0.9-1.1L36.8,2.1C36.8,2.1,36.8,2.1,36.8,2.1 M36.8,0.1c-0.1,0-0.2,0-0.3,0l-33.8,3c-0.8,0.1-1.5,0.4-2,1.1
				C0.2,4.7-0.1,5.5,0,6.3l0.2,2c0.1,1.6,1.4,2.7,3,2.7c0.1,0,0.2,0,0.3,0l33.8-3c1.6-0.1,2.9-1.6,2.7-3.3l-0.2-2
				C39.7,1.3,38.4,0.1,36.8,0.1L36.8,0.1z"/>
		</g>
		<line fill="none" stroke="#fff" stroke-width="2" stroke-miterlimit="10" x1="37.6" y1="1" x2="32.2" y2="7.5"/>
		<line fill="none" stroke="#fff" stroke-width="2" stroke-miterlimit="10" x1="27.7" y1="1.9" x2="22.3" y2="8.4"/>
		<line fill="none" stroke="#fff" stroke-width="2" stroke-miterlimit="10" x1="17.7" y1="2.7" x2="12.3" y2="9.2"/>
		<line fill="none" stroke="#fff" stroke-width="2" stroke-miterlimit="10" x1="7.8" y1="3.6" x2="2.4" y2="10.1"/>
	</g>
</g>
</svg>
