<?xml version="1.0" encoding="utf-8"?>
<!-- Generator: Adobe Illustrator 16.0.3, SVG Export Plug-In . SVG Version: 6.00 Build 0)  -->
<!DOCTYPE svg PUBLIC "-//W3C//DTD SVG 1.1//EN" "http://www.w3.org/Graphics/SVG/1.1/DTD/svg11.dtd">
<svg version="1.1" id="REST" xmlns="http://www.w3.org/2000/svg" xmlns:xlink="http://www.w3.org/1999/xlink" x="0px" y="0px"
	 width="60px" height="60px" viewBox="0 0 60 60" enable-background="new 0 0 60 60" xml:space="preserve">
<path fill="#757575" d="M17,49c0,0.553-0.447,1-1,1l0,0c-0.553,0-1-0.447-1-1V11c0-0.553,0.447-1,1-1l0,0c0.553,0,1,0.447,1,1V49z"
	/>
<path fill="#757575" d="M21,11v11c0,2.199-1.8,4-4,4h-2c-2.2,0-4-1.801-4-4V11c0-0.561,0.44-1,1-1s1,0.439,1,1v11c0,1.1,0.9,2,2,2h2
	c1.1,0,2-0.9,2-2V11c0-0.561,0.44-1,1-1S21,10.439,21,11z"/>
<path fill="#757575" d="M31,10h-1c-2.2,0-4,1.801-4,4v18c0,2.199,1.8,4,4,4v13c0,0.561,0.44,1,1,1s1-0.439,1-1V11
	C32,10.439,31.56,10,31,10z M28,32V14c0-1.1,0.9-2,2-2v22C28.9,34,28,33.1,28,32z"/>
<g>
	<path fill="#757575" d="M47,12c0,0,2,10.002,2,14c0,6-3,8-5,8s-5-2-5-8c0-3.998,2-14,2-14H47 M48.64,10H47h-6h-1.64l-0.321,1.608
		C38.955,12.024,37,21.852,37,26c0,7.91,4.579,10,7,10s7-2.09,7-10c0-4.148-1.955-13.976-2.039-14.392L48.64,10L48.64,10z"/>
</g>
<path fill="#757575" d="M49,22h-5c-0.553,0-1-0.447-1-1l0,0c0-0.553,0.447-1,1-1h5V22z"/>
<rect x="43" y="35" fill="#757575" width="2" height="13"/>
<path fill="#757575" d="M49,49c0,0.561-0.44,1-1,1h-8c-0.56,0-1-0.439-1-1s0.44-1,1-1h8C48.56,48,49,48.439,49,49z"/>
</svg>
