<?xml version="1.0" encoding="UTF-8" standalone="no"?>
<svg width="138px" height="30px" viewBox="0 0 138 30" version="1.1" xmlns="http://www.w3.org/2000/svg" xmlns:xlink="http://www.w3.org/1999/xlink" xmlns:sketch="http://www.bohemiancoding.com/sketch/ns">
    <!-- Generator: Sketch 3.2.2 (9983) - http://www.bohemiancoding.com/sketch -->
    <title>stars mask</title>
    <desc>Created with Sketch.</desc>
    <defs></defs>
    <g id="Page-1" stroke="none" stroke-width="1" fill="none" fill-rule="evenodd" sketch:type="MSPage">
        <g id="#3-movie-selected" sketch:type="MSArtboardGroup" transform="translate(-710.000000, -506.000000)" fill="#F8F8F8">
            <g id="Group" sketch:type="MSLayerGroup" transform="translate(710.000000, 506.000000)">
                <path d="M0,0 L138,0 L138,30 L0,30 L0,0 Z M13.4087591,22.3749994 L6.11507351,25.6127124 L6.91797251,17.6244917 L1.6073279,11.6372876 L9.39723239,9.93800865 L13.4087591,3 L17.4202859,9.93800865 L25.2101903,11.6372876 L19.8995457,17.6244917 L20.7024447,25.6127124 L13.4087591,22.3749994 Z M41.2043796,22.3749994 L33.9106939,25.6127124 L34.713593,17.6244917 L29.4029483,11.6372876 L37.1928528,9.93800865 L41.2043796,3 L45.2159063,9.93800865 L53.0058108,11.6372876 L47.6951662,17.6244917 L48.4980652,25.6127124 L41.2043796,22.3749994 Z M69,22.3749994 L61.7063144,25.6127124 L62.5092134,17.6244917 L57.1985688,11.6372876 L64.9884733,9.93800865 L69,3 L73.0115267,9.93800865 L80.8014312,11.6372876 L75.4907866,17.6244917 L76.2936856,25.6127124 L69,22.3749994 Z M96.7956204,22.3749994 L89.5019348,25.6127124 L90.3048338,17.6244917 L84.9941892,11.6372876 L92.7840937,9.93800865 L96.7956204,3 L100.807147,9.93800865 L108.597052,11.6372876 L103.286407,17.6244917 L104.089306,25.6127124 L96.7956204,22.3749994 Z M124.591241,22.3749994 L117.297555,25.6127124 L118.100454,17.6244917 L112.78981,11.6372876 L120.579714,9.93800865 L124.591241,3 L128.602768,9.93800865 L136.392672,11.6372876 L131.082027,17.6244917 L131.884926,25.6127124 L124.591241,22.3749994 Z" id="stars-mask" sketch:type="MSShapeGroup"></path>
            </g>
        </g>
    </g>
</svg>